<svg width="150" height="150" viewBox="0 0 150 150" fill="none" xmlns="http://www.w3.org/2000/svg">
<g clip-path="url(#clip0_61_36)">
<path d="M150 0H0V150H150V0Z" fill="#E64425"/>
<path d="M28.8457 56.0664C30.2264 55.3501 31.7203 55.4566 33.2033 55.4593C38.6865 55.4688 37.7696 55.7322 42.2719 52.35C43.7412 51.2463 45.2024 50.1303 46.6868 49.0484C47.9501 48.1261 49.3758 47.6486 50.9502 47.6486C52.8535 47.6486 54.7608 47.5722 56.6572 47.6773C57.8114 47.7414 58.9792 47.987 60.087 48.3253C61.5373 48.7673 62.9357 49.3813 64.356 49.9216C67.1378 50.9789 68.2893 52.391 68.7832 55.4416C70.1093 55.4511 71.4613 55.4265 72.8092 55.4784C77.1819 55.6462 79.961 60.2098 78.0441 64.0995C77.6866 64.8253 77.1286 65.4515 76.6621 66.1268C79.3538 69.5212 79.362 71.6864 76.6498 75.3496C78.2119 76.9527 78.9937 78.8627 78.5202 81.122C78.0591 83.3294 76.673 84.8097 74.561 85.6515C74.6647 85.8671 74.7275 86.0062 74.7984 86.1413C77.014 90.342 74.2459 95.0584 69.4912 95.1389C66.955 95.1812 64.4174 95.1471 61.8797 95.1471C57.503 95.1471 53.1263 95.128 48.7496 95.1566C46.8205 95.1689 45.0605 94.7201 43.4534 93.6314C42.3005 92.851 41.0931 92.1497 39.928 91.3871C38.8079 90.6544 37.6046 90.2724 36.2539 90.2997C34.6372 90.3324 33.0191 90.3188 31.4024 90.3038C28.772 90.2806 27.053 88.5752 27.0202 85.9598C27.0066 84.8179 26.9998 83.676 27.0243 82.5354C27.0448 81.5736 27.6164 80.9787 28.4528 80.9856C29.2891 80.9924 29.8389 81.5845 29.8594 82.56C29.8826 83.6692 29.8539 84.7797 29.873 85.8889C29.8921 87.0063 30.3178 87.436 31.4474 87.451C32.9372 87.4715 34.4298 87.5056 35.9183 87.4456C38.0616 87.3596 39.9785 87.9422 41.7357 89.1523C42.5952 89.7444 43.5298 90.2315 44.3688 90.8509C45.9255 91.9983 47.6432 92.3857 49.5546 92.3189C51.8984 92.2384 54.2478 92.3012 56.5944 92.2984C56.8686 92.2984 57.1429 92.2739 57.5085 92.2561C56.0992 89.3556 56.5289 86.7948 58.7091 84.5532C55.9941 80.6267 55.9941 78.553 58.72 75.3346C58.3339 74.8216 57.9014 74.3236 57.5576 73.7711C56.6926 72.3836 56.4689 70.8583 56.8823 69.292C57.0665 68.5935 57.0746 67.9823 56.9055 67.2783C56.6926 66.3997 56.6954 65.4679 56.5944 64.4501C56.065 65.1677 55.6039 65.824 55.1114 66.457C52.4824 69.8432 48.9979 71.5868 44.7385 71.8106C43.628 71.8692 42.9349 71.3631 42.8735 70.5076C42.8053 69.5704 43.4042 69.0192 44.6089 68.966C48.8519 68.775 51.8343 66.5866 54.0431 63.1049C54.8904 61.7692 55.844 60.4991 56.739 59.1934C57.1674 58.5672 57.6927 58.1538 58.4935 58.3939C59.3298 58.6436 59.5618 59.2753 59.5522 60.0898C59.5304 61.9289 59.5331 63.7679 59.5495 65.6084C59.5659 67.5594 60.8702 68.9455 62.6792 68.9687C64.5251 68.9933 65.8867 67.5867 65.8963 65.5961C65.9113 62.3613 65.9031 59.1266 65.899 55.8918C65.8976 54.3637 65.2155 53.2996 63.7557 52.7552C62.154 52.1577 60.5768 51.4878 58.956 50.9489C58.1579 50.6842 57.2902 50.5587 56.4457 50.5191C54.99 50.4509 53.5233 50.5805 52.0717 50.4809C50.2067 50.354 48.706 51.0116 47.2775 52.1508C45.2733 53.7512 43.1819 55.2424 41.1204 56.7704C39.6974 57.8264 38.0807 58.3066 36.318 58.3134C34.7954 58.3202 33.2729 58.3134 31.7517 58.3162C30.2154 58.3203 29.8689 58.675 29.8689 60.2426C29.8689 65.1896 29.8716 70.1379 29.8648 75.0849C29.8648 75.4601 29.9248 75.9472 29.7229 76.1845C29.3914 76.5775 28.8661 77.0454 28.4282 77.0413C27.9903 77.0359 27.4759 76.5556 27.1526 76.1559C26.9547 75.9117 27.0243 75.4287 27.0243 75.0522C27.0175 70.2948 26.9807 65.5375 27.0489 60.7815C27.0653 59.6123 27.4336 58.4485 27.641 57.282C28.0448 56.8782 28.4487 56.4743 28.8525 56.0705L28.8457 56.0664ZM60.4145 82.3267C61.1116 82.5736 61.8033 83.0184 62.506 83.032C65.959 83.1043 69.4162 83.1125 72.8706 83.0416C74.5692 83.0075 75.7903 81.5763 75.7903 79.8859C75.7903 78.2256 74.5201 76.7821 72.8393 76.7535C69.3848 76.6934 65.9277 76.6975 62.4746 76.7562C61.1485 76.778 60.2153 77.5884 59.7528 78.8054C59.2848 80.0346 59.5604 81.1738 60.4172 82.3253L60.4145 82.3267ZM71.5241 86.5833C71.1843 86.4564 70.5267 86.0171 69.8555 85.9939C67.3888 85.9066 64.9167 85.8998 62.45 85.9776C60.7965 86.0294 59.5795 87.4183 59.5509 89.05C59.5222 90.6844 60.6846 92.1565 62.3286 92.2275C64.8553 92.338 67.3929 92.323 69.921 92.2329C71.2335 92.1865 72.1462 91.3625 72.5596 90.1046C72.9607 88.8876 72.6755 87.7989 71.5227 86.5833H71.5241ZM59.5863 71.0138C59.9329 72.8256 61.0844 73.8557 62.7665 73.8693C66.0313 73.8966 69.2961 73.898 72.5609 73.8693C74.4232 73.8529 75.7957 72.4709 75.7916 70.7068C75.7875 68.9141 74.4532 67.5785 72.5787 67.5321C71.4695 67.5034 70.3589 67.558 69.2511 67.5143C68.6917 67.4925 68.4503 67.6781 68.2197 68.2006C66.839 71.3426 63.3245 72.6605 60.188 71.2635C60.0188 71.1884 59.8469 71.1229 59.5863 71.0152V71.0138ZM68.9373 64.6425C70.2034 64.6452 71.5623 64.7052 72.9143 64.6356C74.3959 64.5592 75.6456 63.2672 75.7807 61.8129C75.924 60.2644 74.9676 58.7023 73.4505 58.4731C71.9183 58.2411 70.3371 58.3257 68.9373 58.2766C68.9373 60.5059 68.9373 62.5537 68.9373 64.6438V64.6425Z" fill="white"/>
<path d="M98.4638 71.4299C100.895 71.4299 102.866 69.4585 102.866 67.0273C102.866 64.5961 100.895 62.6246 98.4638 62.6246C96.0326 62.6246 94.0611 64.5961 94.0611 67.0273C94.0611 69.4585 96.0326 71.4299 98.4638 71.4299Z" fill="#F39600"/>
<path d="M98.4638 89.0404C100.895 89.0404 102.866 87.0693 102.866 84.6378C102.866 82.2063 100.895 80.2352 98.4638 80.2352C96.0323 80.2352 94.0611 82.2063 94.0611 84.6378C94.0611 87.0693 96.0323 89.0404 98.4638 89.0404Z" fill="#4BA73E"/>
<path d="M94.0611 75.8325C94.0611 73.4013 92.0897 71.4299 89.6585 71.4299C87.2273 71.4299 85.2559 73.4013 85.2559 75.8325C85.2559 78.2637 87.2273 80.2352 89.6585 80.2352C92.0897 80.2352 94.0611 78.2637 94.0611 75.8325Z" fill="#00A8C2"/>
<path d="M118.452 70.1461C116.482 64.8007 113.694 58.7009 108.266 56.0896C102.281 53.2109 95.802 55.4388 89.7062 56.6312C86.5683 57.2452 83.3758 57.4812 80.1943 57.3461C82.2203 59.027 83.0634 61.9534 81.7714 64.577C81.414 65.3028 80.8559 65.929 80.3894 66.6044C83.0811 69.9988 83.0893 72.1639 80.3771 75.8271C81.9392 77.4302 82.721 79.3402 82.2475 81.5995C81.7864 83.807 80.4003 85.2872 78.2883 86.129C78.392 86.3446 78.4548 86.4837 78.5257 86.6188C79.6676 88.7826 79.4835 91.0828 78.3893 92.8155C84.5614 91.5672 91.2998 93.63 95.6014 99.0081C95.6369 99.0531 95.6737 99.0982 95.7092 99.1432C101.849 106.917 109.685 110.842 116.156 108.457C125.564 104.989 124.218 85.7893 118.452 70.1475V70.1461ZM98.4637 62.6247C100.895 62.6247 102.866 64.5961 102.866 67.0273C102.866 69.4585 100.895 71.4299 98.4637 71.4299C96.0325 71.4299 94.0611 69.4585 94.0611 67.0273C94.0611 64.5961 96.0325 62.6247 98.4637 62.6247ZM89.6585 80.2338C87.2273 80.2338 85.2559 78.2624 85.2559 75.8312C85.2559 73.4 87.2273 71.4286 89.6585 71.4286C92.0897 71.4286 94.0611 73.4 94.0611 75.8312C94.0611 78.2624 92.0897 80.2338 89.6585 80.2338ZM98.4637 89.0391C96.0325 89.0391 94.0611 87.0677 94.0611 84.6365C94.0611 82.2053 96.0325 80.2338 98.4637 80.2338C100.895 80.2338 102.866 82.2053 102.866 84.6365C102.866 87.0677 100.895 89.0391 98.4637 89.0391ZM111.672 75.8312C111.672 78.2624 109.7 80.2338 107.269 80.2338C104.838 80.2338 102.866 78.2624 102.866 75.8312C102.866 73.4 104.838 71.4286 107.269 71.4286C109.7 71.4286 111.672 73.4 111.672 75.8312Z" fill="white"/>
<path d="M85.7293 49.9311C85.7525 49.8247 86.1563 49.5232 85.9557 49.4727C84.8779 49.1057 84.8902 49.2121 85.657 48.3608C85.7593 48.1439 86.9667 47.0088 86.7279 46.9419C86.4605 46.7782 85.0635 46.4958 85.1795 46.2707C85.9871 45.0155 87.5643 42.4792 87.5643 42.4792L88.0868 41.6675C88.0868 41.6675 89.6394 42.1982 90.6135 42.5952C89.8195 43.5557 88.9218 44.5012 88.1004 45.463C88.0336 45.5981 87.5861 45.8668 87.7716 45.9746C88.2246 46.1383 88.6789 46.3007 89.1319 46.4658C89.4211 46.5135 88.0158 47.5231 87.8958 47.7373C86.8125 48.871 86.0021 48.7919 87.6011 49.2626C87.668 49.2694 87.6871 49.3226 87.612 49.3445C86.3719 50.1016 85.6119 51.0621 84.3759 51.7989C84.7974 51.1535 85.2872 50.5642 85.7265 49.9325L85.7293 49.9311Z" fill="white"/>
<path d="M80.3525 48.9242C80.3293 48.8178 80.5749 48.3758 80.3703 48.4126C79.2365 48.5204 79.2924 48.6132 79.6403 47.5217C79.6444 47.2816 80.2802 45.7509 80.0346 45.7891C79.7236 45.7495 78.3333 46.066 78.347 45.8123C78.5694 44.3361 78.9664 41.3755 78.9664 41.3755L79.1096 40.4205C79.1096 40.4205 80.7427 40.2677 81.7946 40.2295C81.4658 41.4315 81.0347 42.6621 80.6813 43.8763C80.6759 44.0264 80.3784 44.4561 80.5926 44.478C81.0729 44.4411 81.5545 44.4029 82.0347 44.3674C82.3185 44.2924 81.4522 45.7904 81.4303 46.0333C80.9078 47.5122 80.1356 47.7714 81.7878 47.5449C81.8519 47.5231 81.8915 47.564 81.8314 47.6145C81.0115 48.8137 80.7127 50.0007 79.8887 51.1808C80.0073 50.4182 80.2134 49.6814 80.3539 48.9242H80.3525Z" fill="white"/>
<path d="M74.5733 49.9311C74.5501 49.8247 74.1463 49.5232 74.3468 49.4727C75.4246 49.1057 75.4124 49.2121 74.6456 48.3608C74.5433 48.1439 73.3359 47.0088 73.5746 46.9419C73.842 46.7782 75.2391 46.4958 75.1231 46.2707C74.3154 45.0155 72.7383 42.4792 72.7383 42.4792L72.2158 41.6675C72.2158 41.6675 70.6632 42.1982 69.6891 42.5952C70.4831 43.5557 71.3808 44.5012 72.2021 45.463C72.269 45.5981 72.7165 45.8668 72.5309 45.9746C72.078 46.1383 71.6237 46.3007 71.1707 46.4658C70.8815 46.5135 72.2867 47.5231 72.4068 47.7373C73.49 48.871 74.3004 48.7919 72.7015 49.2626C72.6346 49.2694 72.6155 49.3226 72.6906 49.3445C73.9307 50.1016 74.6906 51.0621 75.9267 51.7989C75.5051 51.1535 75.0153 50.5642 74.576 49.9325L74.5733 49.9311Z" fill="white"/>
</g>
<defs>
<clipPath id="clip0_61_36">
<rect width="150" height="150" rx="75" fill="white"/>
</clipPath>
</defs>
</svg>
