<svg width="637" height="458" viewBox="0 0 637 458" fill="none" xmlns="http://www.w3.org/2000/svg">
<path d="M12.2052 105.08C21.3652 100.33 31.2752 101.04 41.1152 101.05C77.5052 101.11 71.4152 102.86 101.285 80.42C111.035 73.1 120.725 65.7 130.575 58.51C138.965 52.39 148.415 49.22 158.865 49.22C171.495 49.22 184.145 48.72 196.735 49.41C204.395 49.83 212.145 51.47 219.495 53.71C229.115 56.64 238.395 60.72 247.825 64.3C266.285 71.32 273.925 80.69 277.195 100.93C285.995 101 294.965 100.83 303.905 101.17C332.915 102.28 351.365 132.56 338.645 158.37C336.275 163.18 332.575 167.34 329.475 171.82C347.335 194.34 347.385 208.71 329.395 233.01C339.765 243.65 344.945 256.32 341.805 271.31C338.745 285.95 329.545 295.78 315.535 301.36C316.225 302.79 316.635 303.71 317.105 304.61C331.805 332.49 313.445 363.78 281.885 364.31C265.055 364.59 248.215 364.37 231.385 364.37C202.345 364.37 173.305 364.24 144.265 364.43C131.465 364.51 119.785 361.54 109.125 354.31C101.475 349.13 93.4652 344.48 85.7352 339.42C78.2952 334.56 70.3252 332.02 61.3652 332.2C50.6352 332.42 39.9052 332.32 29.1752 332.23C11.7252 332.08 0.315219 320.76 0.105219 303.41C0.0152192 295.84 -0.0247765 288.26 0.125224 280.69C0.255223 274.31 4.05522 270.36 9.60522 270.4C15.1552 270.45 18.8052 274.37 18.9352 280.85C19.0852 288.21 18.8952 295.58 19.0252 302.94C19.1552 310.36 21.9752 313.2 29.4652 313.3C39.3552 313.43 49.2552 313.66 59.1352 313.26C73.3652 312.69 86.0752 316.55 97.7352 324.58C103.445 328.51 109.645 331.74 115.205 335.85C125.525 343.46 136.935 346.03 149.615 345.59C165.165 345.05 180.755 345.47 196.325 345.45C198.145 345.45 199.965 345.29 202.385 345.17C193.035 325.92 195.885 308.93 210.355 294.06C192.335 268.01 192.345 254.25 210.425 232.9C207.865 229.49 204.995 226.19 202.715 222.53C196.975 213.32 195.495 203.2 198.235 192.81C199.465 188.17 199.515 184.12 198.385 179.45C196.975 173.62 196.995 167.44 196.315 160.69C192.805 165.45 189.735 169.8 186.475 174C169.025 196.47 145.915 208.03 117.645 209.52C110.275 209.91 105.685 206.55 105.265 200.87C104.815 194.65 108.795 191 116.785 190.64C144.935 189.37 164.735 174.85 179.385 151.75C185.005 142.88 191.335 134.46 197.275 125.8C200.125 121.65 203.595 118.9 208.915 120.49C214.465 122.15 216.005 126.34 215.945 131.74C215.795 143.94 215.815 156.15 215.925 168.35C216.035 181.29 224.685 190.49 236.695 190.64C248.945 190.8 257.975 181.47 258.035 168.26C258.135 146.8 258.085 125.33 258.055 103.87C258.045 93.73 253.525 86.67 243.835 83.06C233.205 79.1 222.745 74.65 211.985 71.08C206.695 69.32 200.925 68.49 195.335 68.23C185.675 67.78 175.945 68.63 166.315 67.98C153.935 67.13 143.975 71.5 134.505 79.06C121.205 89.68 107.325 99.57 93.6452 109.71C84.1952 116.71 73.4752 119.9 61.7852 119.95C51.6852 120 41.5852 119.95 31.4852 119.97C21.2952 119.99 18.9952 122.35 18.9852 132.75C18.9852 165.58 19.0052 198.4 18.9552 231.23C18.9552 233.72 19.3452 236.95 18.0152 238.53C15.8152 241.13 12.3352 244.25 9.42522 244.21C6.51522 244.18 3.10522 240.99 0.955218 238.33C-0.354782 236.71 0.105219 233.5 0.105219 231.01C0.0652192 199.45 -0.184777 167.88 0.265223 136.32C0.375223 128.56 2.82522 120.84 4.19522 113.1C6.87522 110.42 9.55522 107.74 12.2352 105.06L12.2052 105.08ZM221.665 279.32C226.285 280.96 230.885 283.91 235.535 284C258.455 284.48 281.385 284.53 304.305 284.07C315.575 283.84 323.675 274.35 323.675 263.13C323.675 252.11 315.245 242.54 304.095 242.34C281.175 241.95 258.235 241.97 235.315 242.35C226.515 242.5 220.325 247.87 217.255 255.95C214.155 264.11 215.985 271.66 221.665 279.31V279.32ZM295.375 307.57C293.115 306.73 288.755 303.81 284.305 303.66C267.945 303.08 251.535 303.03 235.165 303.55C224.195 303.9 216.115 313.11 215.925 323.94C215.735 334.78 223.445 344.55 234.355 345.03C251.125 345.76 267.955 345.66 284.735 345.07C293.445 344.76 299.495 339.3 302.245 330.94C304.905 322.87 303.015 315.64 295.365 307.58L295.375 307.57ZM216.165 204.26C218.465 216.28 226.105 223.11 237.265 223.2C258.925 223.38 280.595 223.39 302.255 223.2C314.615 223.09 323.725 213.92 323.695 202.22C323.665 190.32 314.815 181.46 302.375 181.15C295.015 180.96 287.645 181.32 280.295 181.03C276.585 180.88 274.975 182.11 273.455 185.58C264.295 206.43 240.975 215.17 220.165 205.9C219.045 205.4 217.895 204.96 216.165 204.25V204.26ZM278.215 161.98C286.615 162 295.635 162.39 304.605 161.93C314.435 161.42 322.735 152.85 323.625 143.2C324.575 132.92 318.235 122.56 308.165 121.04C297.995 119.5 287.515 120.06 278.215 119.74C278.215 134.53 278.215 148.12 278.215 161.99V161.98Z" fill="#E64425"/>
<path d="M474.145 207.03C490.275 207.03 503.355 193.95 503.355 177.82C503.355 161.69 490.275 148.61 474.145 148.61C458.015 148.61 444.935 161.69 444.935 177.82C444.935 193.95 458.015 207.03 474.145 207.03Z" fill="white"/>
<path d="M474.145 323.87C490.278 323.87 503.355 310.792 503.355 294.66C503.355 278.528 490.278 265.45 474.145 265.45C458.013 265.45 444.935 278.528 444.935 294.66C444.935 310.792 458.013 323.87 474.145 323.87Z" fill="white"/>
<path d="M444.935 236.24C444.935 220.11 431.855 207.03 415.725 207.03C399.595 207.03 386.515 220.11 386.515 236.24C386.515 252.37 399.595 265.45 415.725 265.45C431.855 265.45 444.935 252.37 444.935 236.24Z" fill="white"/>
<path d="M606.775 198.51C593.705 163.04 575.195 122.56 539.185 105.25C499.465 86.15 456.475 100.93 416.035 108.84C395.215 112.91 374.025 114.48 352.915 113.59C366.355 124.75 371.955 144.16 363.385 161.57C361.015 166.38 357.315 170.54 354.215 175.02C372.075 197.54 372.125 211.91 354.135 236.21C364.505 246.85 369.685 259.52 366.545 274.51C363.485 289.15 354.285 298.98 340.275 304.56C340.965 305.99 341.375 306.91 341.845 307.81C349.415 322.17 348.205 337.43 340.945 348.93C381.905 340.64 426.615 354.33 455.155 390.02C455.395 390.32 455.635 390.62 455.865 390.92C496.595 442.5 548.605 468.55 591.535 452.73C653.965 429.72 645.025 302.32 606.775 198.53V198.51ZM474.145 148.61C490.275 148.61 503.355 161.69 503.355 177.82C503.355 193.95 490.275 207.03 474.145 207.03C458.015 207.03 444.935 193.95 444.935 177.82C444.935 161.69 458.015 148.61 474.145 148.61ZM415.725 265.46C399.595 265.46 386.515 252.38 386.515 236.25C386.515 220.12 399.595 207.04 415.725 207.04C431.855 207.04 444.935 220.12 444.935 236.25C444.935 252.38 431.855 265.46 415.725 265.46ZM474.145 323.88C458.015 323.88 444.935 310.8 444.935 294.67C444.935 278.54 458.015 265.46 474.145 265.46C490.275 265.46 503.355 278.54 503.355 294.67C503.355 310.8 490.275 323.88 474.145 323.88ZM561.775 236.25C561.775 252.38 548.695 265.46 532.565 265.46C516.435 265.46 503.355 252.38 503.355 236.25C503.355 220.12 516.435 207.04 532.565 207.04C548.695 207.04 561.775 220.12 561.775 236.25Z" fill="#E64425"/>
<path d="M389.645 64.38C389.795 63.67 392.485 61.67 391.145 61.33C383.995 58.89 384.075 59.6 389.155 53.95C389.835 52.51 397.845 44.98 396.265 44.54C394.485 43.45 385.225 41.58 385.995 40.08C391.355 31.75 401.825 14.92 401.825 14.92L405.295 9.54004C405.295 9.54004 415.595 13.06 422.055 15.7C416.795 22.08 410.825 28.35 405.385 34.73C404.945 35.62 401.975 37.41 403.205 38.12C406.215 39.21 409.225 40.28 412.235 41.38C414.155 41.7 404.835 48.4 404.035 49.81C396.845 57.34 391.465 56.8 402.075 59.93C402.525 59.98 402.645 60.32 402.145 60.47C393.915 65.5 388.875 71.87 380.675 76.75C383.475 72.46 386.725 68.56 389.635 64.36L389.645 64.38Z" fill="#E64425"/>
<path d="M353.965 57.69C353.815 56.98 355.435 54.06 354.085 54.3C346.565 55.01 346.935 55.63 349.245 48.39C349.275 46.8 353.485 36.64 351.865 36.89C349.795 36.63 340.575 38.72 340.665 37.04C342.135 27.24 344.775 7.59999 344.775 7.59999L345.725 1.26999C345.725 1.26999 356.565 0.26 363.535 0C361.355 7.98 358.495 16.14 356.145 24.2C356.115 25.2 354.135 28.04 355.555 28.19C358.745 27.95 361.935 27.69 365.125 27.46C367.005 26.96 361.255 36.9 361.115 38.52C357.655 48.33 352.525 50.06 363.485 48.55C363.915 48.41 364.165 48.68 363.775 49.01C358.335 56.97 356.355 64.85 350.885 72.67C351.675 67.61 353.045 62.72 353.975 57.7L353.965 57.69Z" fill="#E64425"/>
<path d="M315.625 64.38C315.475 63.67 312.785 61.67 314.125 61.33C321.275 58.89 321.195 59.6 316.115 53.95C315.435 52.51 307.425 44.98 309.005 44.54C310.785 43.45 320.045 41.58 319.275 40.08C313.915 31.75 303.445 14.92 303.445 14.92L299.975 9.54004C299.975 9.54004 289.675 13.06 283.215 15.7C288.475 22.08 294.445 28.35 299.885 34.73C300.325 35.62 303.295 37.41 302.065 38.12C299.055 39.21 296.045 40.28 293.035 41.38C291.115 41.7 300.435 48.4 301.235 49.81C308.425 57.34 313.805 56.8 303.195 59.93C302.745 59.98 302.625 60.32 303.125 60.47C311.355 65.5 316.395 71.87 324.595 76.75C321.795 72.46 318.545 68.56 315.635 64.36L315.625 64.38Z" fill="#E64425"/>
</svg>
