<svg width="22" height="23" viewBox="0 0 22 23" opacity="0.60" fill="none" xmlns="http://www.w3.org/2000/svg">
<path d="M2.39412 22.625C1.77272 22.625 1.24077 22.4037 0.798271 21.9612C0.355771 21.5187 0.134521 20.9868 0.134521 20.3654V3.63469C0.134521 3.0133 0.355771 2.48135 0.798271 2.03885C1.24077 1.59633 1.77272 1.37507 2.39412 1.37507H13.2595V3.25004H2.39412C2.28193 3.25004 2.18977 3.2861 2.11765 3.35823C2.04552 3.43035 2.00946 3.52251 2.00946 3.63469V20.3654C2.00946 20.4776 2.04552 20.5697 2.11765 20.6419C2.18977 20.714 2.28193 20.75 2.39412 20.75H19.1248C19.237 20.75 19.3292 20.714 19.4013 20.6419C19.4734 20.5697 19.5095 20.4776 19.5095 20.3654V9.50004H21.3844V20.3654C21.3844 20.9868 21.1632 21.5187 20.7206 21.9612C20.2781 22.4037 19.7462 22.625 19.1248 22.625H2.39412ZM17.4903 7.76923V5.26923H14.9903V3.39429H17.4903V0.894287H19.3652V3.39429H21.8652V5.26923H19.3652V7.76923H17.4903ZM4.19702 17.9375H17.4181L13.3075 12.4568L9.79793 17.0241L7.29796 13.827L4.19702 17.9375Z" fill="white"/>
</svg>


