<svg width="26" height="26" viewBox="0 0 26 26" fill="none" xmlns="http://www.w3.org/2000/svg">
<path d="M17.1399 3.73077C16.7592 3.73077 16.4377 3.59933 16.1753 3.33647C15.9129 3.0736 15.7817 2.75181 15.7817 2.3711C15.7817 1.99039 15.9131 1.66884 16.176 1.40647C16.4389 1.14407 16.7607 1.01287 17.1414 1.01287C17.5221 1.01287 17.8436 1.1443 18.106 1.40717C18.3684 1.67003 18.4996 1.99182 18.4996 2.37253C18.4996 2.75324 18.3682 3.0748 18.1053 3.3372C17.8424 3.59958 17.5207 3.73077 17.1399 3.73077ZM17.1015 24.9871C16.7208 24.9871 16.3992 24.8557 16.1368 24.5928C15.8744 24.33 15.7432 24.0082 15.7432 23.6275C15.7432 23.2468 15.8747 22.9252 16.1375 22.6628C16.4004 22.4004 16.7222 22.2692 17.1029 22.2692C17.4836 22.2692 17.8052 22.4007 18.0675 22.6635C18.3299 22.9264 18.4611 23.2482 18.4611 23.6289C18.4611 24.0096 18.3297 24.3312 18.0668 24.5935C17.804 24.8559 17.4822 24.9871 17.1015 24.9871ZM22.4348 8.24357C22.0541 8.24357 21.7325 8.11213 21.4701 7.84927C21.2078 7.5864 21.0766 7.26461 21.0766 6.8839C21.0766 6.50319 21.208 6.18164 21.4709 5.91927C21.7337 5.65687 22.0555 5.52567 22.4362 5.52567C22.817 5.52567 23.1385 5.65711 23.4009 5.92C23.6633 6.18287 23.7945 6.50466 23.7945 6.88537C23.7945 7.26608 23.663 7.58762 23.4002 7.85C23.1373 8.11238 22.8155 8.24357 22.4348 8.24357ZM22.3963 20.5128C22.0156 20.5128 21.6941 20.3814 21.4317 20.1185C21.1693 19.8556 21.0381 19.5338 21.0381 19.1531C21.0381 18.7724 21.1695 18.4508 21.4324 18.1885C21.6953 17.9261 22.0171 17.7949 22.3978 17.7949C22.7785 17.7949 23.1 17.9263 23.3624 18.1892C23.6248 18.4521 23.756 18.7739 23.756 19.1546C23.756 19.5353 23.6246 19.8568 23.3617 20.1192C23.0988 20.3816 22.7771 20.5128 22.3963 20.5128ZM24.3066 14.359C23.9259 14.359 23.6043 14.2275 23.3419 13.9646C23.0795 13.7018 22.9483 13.38 22.9483 12.9993C22.9483 12.6186 23.0798 12.297 23.3427 12.0346C23.6055 11.7722 23.9273 11.641 24.308 11.641C24.6888 11.641 25.0103 11.7725 25.2727 12.0354C25.5351 12.2982 25.6663 12.62 25.6663 13.0007C25.6663 13.3814 25.5348 13.703 25.2719 13.9654C25.0091 14.2278 24.6873 14.359 24.3066 14.359ZM12.9996 25.6666C11.2492 25.6666 9.60325 25.3342 8.06174 24.6693C6.52021 24.0044 5.1793 23.1021 4.03901 21.9623C2.8987 20.8225 1.99595 19.4822 1.33077 17.9413C0.665597 16.4005 0.333008 14.7541 0.333008 13.0022C0.333008 11.2503 0.665508 9.60361 1.33051 8.0621C1.99551 6.52057 2.89801 5.17966 4.03801 4.03937C5.17801 2.89906 6.51856 1.99631 8.05967 1.33113C9.60076 0.665955 11.2474 0.333366 12.9996 0.333366V2.33333C10.0219 2.33333 7.49964 3.36667 5.43297 5.43333C3.36631 7.5 2.33297 10.0222 2.33297 13C2.33297 15.9778 3.36631 18.5 5.43297 20.5667C7.49964 22.6333 10.0219 23.6667 12.9996 23.6667V25.6666ZM12.9996 15.3333C12.3518 15.3333 11.8009 15.1064 11.3471 14.6525C10.8933 14.1987 10.6663 13.6479 10.6663 13C10.6663 12.8632 10.6762 12.7295 10.6958 12.5987C10.7155 12.4679 10.7561 12.3427 10.8176 12.2231L8.14071 9.53333L9.53297 8.14107L12.2227 10.818C12.3202 10.7787 12.5791 10.7282 12.9996 10.6667C13.6475 10.6667 14.1984 10.8936 14.6522 11.3475C15.106 11.8013 15.3329 12.3521 15.3329 13C15.3329 13.6479 15.106 14.1987 14.6522 14.6525C14.1984 15.1064 13.6475 15.3333 12.9996 15.3333Z" fill="white"/>
</svg>
