<svg width="31" height="34" viewBox="0 0 31 34" fill="none" xmlns="http://www.w3.org/2000/svg">
<g filter="url(#filter0_d_444_207)">
<path opacity="0.4" d="M4.81797 7.90805C5.4325 7.57657 6.09744 7.62582 6.75751 7.62708C9.19804 7.6315 8.78997 7.75336 10.7939 6.18816C11.4479 5.67737 12.0982 5.1609 12.7589 4.66021C13.3212 4.2334 13.9558 4.01242 14.6566 4.01242C15.5037 4.01242 16.3526 3.97706 17.1967 4.02568C17.7104 4.05535 18.2302 4.169 18.7233 4.32558C19.3688 4.53015 19.9912 4.81427 20.6234 5.0643C21.8616 5.55362 22.3741 6.2071 22.5939 7.61887C23.1841 7.62329 23.7859 7.61193 24.3859 7.63592C26.3321 7.71358 27.5691 9.82555 26.7159 11.6256C26.5568 11.9615 26.3084 12.2513 26.1007 12.5639C27.2988 14.1347 27.3025 15.1367 26.0953 16.832C26.7906 17.5739 27.1385 18.4578 26.9278 19.5034C26.7226 20.525 26.1056 21.21 25.1656 21.5996C25.2117 21.6993 25.2397 21.7637 25.2712 21.8262C26.2574 23.7703 25.0253 25.9529 22.9091 25.9902C21.7802 26.0098 20.6507 25.994 19.5212 25.994C17.5732 25.994 15.6251 25.9851 13.6771 25.9984C12.8184 26.0041 12.0351 25.7964 11.3198 25.2925C10.8066 24.9314 10.2692 24.6068 9.75063 24.2539C9.25208 23.9148 8.71649 23.7381 8.11532 23.7507C7.39573 23.7658 6.67554 23.7595 5.95595 23.7526C4.78518 23.7418 4.02005 22.9526 4.00547 21.7423C3.9994 21.2138 3.99636 20.6853 4.00729 20.1575C4.0164 19.7124 4.27084 19.4371 4.64308 19.4402C5.01532 19.4434 5.26004 19.7174 5.26915 20.1689C5.27948 20.6822 5.26672 21.1961 5.27523 21.7094C5.28373 22.2265 5.47319 22.4254 5.97599 22.4324C6.6391 22.4418 7.30343 22.4576 7.96593 22.4298C8.91992 22.3901 9.7731 22.6597 10.5552 23.2197C10.9378 23.4937 11.3538 23.7191 11.7272 24.0058C12.4201 24.5368 13.1846 24.7161 14.0354 24.6851C15.0786 24.6479 16.1243 24.6769 17.1688 24.6757C17.2908 24.6757 17.4129 24.6643 17.5756 24.6561C16.9483 23.3138 17.1396 22.1287 18.11 21.0913C16.9016 19.2742 16.9016 18.3145 18.1148 16.8251C17.943 16.5877 17.7505 16.3572 17.5975 16.1015C17.2125 15.4594 17.1129 14.7535 17.2969 14.0287C17.3789 13.7054 17.3825 13.4225 17.3072 13.0967C17.2125 12.6901 17.2137 12.2589 17.1688 11.7879C16.9331 12.12 16.7279 12.4237 16.5087 12.7166C15.3385 14.2837 13.7876 15.0906 11.8918 15.1942C11.3975 15.2213 11.089 14.9871 11.0617 14.5912C11.0313 14.1575 11.2979 13.9024 11.8341 13.8778C13.7226 13.7894 15.0501 12.7766 16.0332 11.1653C16.4103 10.5472 16.8348 9.9594 17.2331 9.35517C17.4238 9.06537 17.6576 8.87406 18.014 8.98518C18.3863 9.10073 18.4895 9.39305 18.4853 9.76999C18.4755 10.6211 18.4768 11.4722 18.4841 12.3239C18.4913 13.2268 19.0719 13.8683 19.8771 13.879C20.6987 13.8904 21.3047 13.2394 21.309 12.3182C21.3156 10.8212 21.312 9.32423 21.3102 7.82723C21.3096 7.12008 21.0059 6.6276 20.3562 6.37568C19.6433 6.09913 18.9413 5.78913 18.2199 5.53973C17.8647 5.41724 17.4785 5.35915 17.1026 5.34084C16.4546 5.30928 15.8018 5.36926 15.1557 5.32317C14.3256 5.26445 13.6577 5.56877 13.0219 6.09598C12.1298 6.83659 11.1989 7.52669 10.2814 8.23384C9.64801 8.72253 8.92842 8.94477 8.14386 8.94793C7.46617 8.95109 6.78848 8.94793 6.1114 8.94919C5.42764 8.95109 5.2734 9.11525 5.2734 9.8407C5.2734 12.1301 5.27462 14.4201 5.27158 16.7095C5.27158 16.8831 5.2983 17.1085 5.20843 17.2184C5.06087 17.4002 4.82708 17.6168 4.63215 17.6149C4.43723 17.6124 4.20829 17.3901 4.06438 17.2051C3.97633 17.0921 4.00729 16.8686 4.00729 16.6944C4.00426 14.4927 3.98786 12.2911 4.01823 10.0901C4.02551 9.54901 4.18947 9.01044 4.28177 8.4706C4.46152 8.28372 4.64126 8.09683 4.82101 7.90994L4.81797 7.90805ZM18.869 20.0609C19.1793 20.1752 19.4872 20.381 19.8 20.3873C21.3369 20.4208 22.8757 20.4246 24.4132 20.3917C25.1692 20.3759 25.7127 19.7136 25.7127 18.9313C25.7127 18.163 25.1474 17.4949 24.3992 17.4817C22.8617 17.4539 21.3229 17.4558 19.786 17.483C19.1957 17.4931 18.7804 17.8681 18.5745 18.4313C18.3662 19.0002 18.4889 19.5274 18.8703 20.0603L18.869 20.0609ZM23.8139 22.0308C23.6626 21.9721 23.37 21.7688 23.0712 21.758C21.9733 21.7176 20.873 21.7145 19.7751 21.7505C19.0391 21.7745 18.4974 22.4172 18.4847 23.1723C18.4719 23.9287 18.9893 24.61 19.721 24.6428C20.8456 24.694 21.9751 24.687 23.1003 24.6454C23.6845 24.6239 24.0908 24.2425 24.2748 23.6604C24.4533 23.0972 24.3264 22.5934 23.8132 22.0308H23.8139ZM18.5004 14.8255C18.6547 15.6639 19.1672 16.1406 19.9159 16.1469C21.3691 16.1596 22.8222 16.1602 24.2754 16.1469C25.1043 16.1394 25.7151 15.4998 25.7133 14.6834C25.7115 13.8538 25.1176 13.2356 24.2833 13.2142C23.7896 13.2009 23.2953 13.2262 22.8022 13.206C22.5532 13.1959 22.4457 13.2817 22.3431 13.5236C21.7286 14.9776 20.1643 15.5875 18.7682 14.941C18.6929 14.9063 18.6164 14.876 18.5004 14.8261V14.8255ZM22.6625 11.8769C23.226 11.8782 23.8309 11.906 24.4326 11.8738C25.0921 11.8384 25.6483 11.2405 25.7085 10.5674C25.7722 9.85081 25.3465 9.12787 24.6713 9.0218C23.9893 8.91447 23.2855 8.95361 22.6625 8.93088C22.6625 9.96256 22.6625 10.9103 22.6625 11.8775V11.8769Z" fill="white"/>
</g>
<defs>
<filter id="filter0_d_444_207" x="-4" y="0" width="38" height="38" filterUnits="userSpaceOnUse" color-interpolation-filters="sRGB">
<feFlood flood-opacity="0" result="BackgroundImageFix"/>
<feColorMatrix in="SourceAlpha" type="matrix" values="0 0 0 0 0 0 0 0 0 0 0 0 0 0 0 0 0 0 127 0" result="hardAlpha"/>
<feOffset dy="4"/>
<feGaussianBlur stdDeviation="2"/>
<feComposite in2="hardAlpha" operator="out"/>
<feColorMatrix type="matrix" values="0 0 0 0 0 0 0 0 0 0 0 0 0 0 0 0 0 0 0.25 0"/>
<feBlend mode="normal" in2="BackgroundImageFix" result="effect1_dropShadow_444_207"/>
<feBlend mode="normal" in="SourceGraphic" in2="effect1_dropShadow_444_207" result="shape"/>
</filter>
</defs>
</svg>
