<svg width="30" height="30" viewBox="0 0 30 30" fill="none" xmlns="http://www.w3.org/2000/svg">
<path d="M4.5 17.5841V19.4537C4.54537 19.4443 4.59317 19.4398 4.64308 19.4402C5.01532 19.4433 5.26004 19.7174 5.26915 20.1688C5.27453 20.436 5.27365 20.7034 5.27277 20.9708C5.27196 21.217 5.27115 21.4633 5.27523 21.7094C5.28373 22.2265 5.47319 22.4254 5.97599 22.4323C6.05977 22.4335 6.14357 22.4348 6.22739 22.4361C6.80695 22.4451 7.38714 22.4541 7.96593 22.4298C8.91992 22.39 9.7731 22.6596 10.5552 23.2196C10.7242 23.3407 10.8998 23.4523 11.0752 23.5638C11.297 23.7048 11.5187 23.8457 11.7272 24.0057C12.4201 24.5367 13.1846 24.716 14.0354 24.6851C14.7513 24.6595 15.4684 24.6652 16.1855 24.6708C16.5133 24.6734 16.8411 24.676 17.1688 24.6756C17.2501 24.6756 17.3315 24.6706 17.425 24.6648C17.4717 24.6619 17.5214 24.6588 17.5756 24.656C16.9483 23.3137 17.1396 22.1286 18.11 21.0913C16.9016 19.2741 16.9016 18.3144 18.1148 16.825C18.0622 16.7522 18.0075 16.6801 17.9527 16.6077C17.8287 16.4439 17.7036 16.2788 17.5975 16.1014C17.2125 15.4593 17.1129 14.7534 17.2969 14.0286C17.3789 13.7053 17.3825 13.4225 17.3072 13.0967C17.2417 12.8154 17.2221 12.5224 17.2013 12.2125C17.1921 12.0744 17.1826 11.933 17.1688 11.7878C17.0914 11.8969 17.0173 12.0029 16.9449 12.1065C16.7968 12.3183 16.6559 12.5199 16.5087 12.7166C15.3385 14.2837 13.7876 15.0906 11.8918 15.1941C11.3975 15.2213 11.089 14.9871 11.0617 14.5912C11.0313 14.1574 11.2979 13.9023 11.8341 13.8777C13.7226 13.7893 15.0501 12.7766 16.0332 11.1653C16.2768 10.7661 16.5401 10.3795 16.8033 9.99299C16.9477 9.78105 17.092 9.56911 17.2331 9.35512C17.4238 9.06532 17.6576 8.87401 18.014 8.98513C18.3863 9.10068 18.4895 9.39301 18.4853 9.76994C18.4755 10.621 18.4768 11.4721 18.4841 12.3239C18.4913 13.2268 19.0719 13.8682 19.8771 13.879C20.6987 13.8903 21.3047 13.2394 21.309 12.3182C21.3146 11.0454 21.3129 9.77253 21.3111 8.4997C21.3108 8.27553 21.3104 8.05135 21.3102 7.82718C21.3096 7.12003 21.0059 6.62755 20.3562 6.37563C20.1023 6.27713 19.8497 6.17438 19.5972 6.07163C19.1407 5.88593 18.6843 5.70024 18.2199 5.53968C17.8647 5.41719 17.4785 5.35911 17.1026 5.3408C16.8024 5.32617 16.5011 5.33119 16.2 5.33622C15.8512 5.34204 15.5025 5.34785 15.1557 5.32312C14.3256 5.2644 13.6577 5.56872 13.0219 6.09593C12.3561 6.6487 11.6686 7.17332 10.9813 7.6979C10.7477 7.87617 10.5141 8.05443 10.2814 8.23379C9.64801 8.72248 8.92842 8.94472 8.14386 8.94788C7.74519 8.94974 7.34653 8.94941 6.94798 8.94908C6.66905 8.94885 6.39018 8.94862 6.1114 8.94914C5.42764 8.95104 5.2734 9.1152 5.2734 9.84066C5.2734 10.3494 5.27346 10.8582 5.27352 11.367C5.27373 13.1478 5.27394 14.9288 5.27158 16.7095C5.27158 16.7411 5.27247 16.7746 5.27338 16.8087C5.27745 16.9615 5.2819 17.1285 5.20843 17.2184C5.06087 17.4002 4.82708 17.6168 4.63215 17.6149C4.58932 17.6143 4.54485 17.6031 4.5 17.5841Z" fill="#E64425"/>
<path d="M19.1616 20.1869C19.0641 20.1418 18.9667 20.0968 18.869 20.0608L18.8703 20.0602C18.4889 19.5273 18.3662 19.0001 18.5745 18.4312C18.7804 17.868 19.1957 17.493 19.786 17.4829C21.3229 17.4558 22.8617 17.4539 24.3992 17.4816C25.1474 17.4949 25.7127 18.1629 25.7127 18.9313C25.7127 19.7136 25.1692 20.3759 24.4132 20.3917C22.8757 20.4245 21.3369 20.4207 19.8 20.3873C19.5857 20.3829 19.3736 20.2849 19.1616 20.1869Z" fill="#E64425"/>
<path d="M23.6644 21.9589C23.7226 21.9889 23.7733 22.015 23.8139 22.0308C24.327 22.5933 24.4533 23.0972 24.2748 23.6603C24.0908 24.2425 23.6845 24.6238 23.1003 24.6453C21.9751 24.687 20.8456 24.6939 19.721 24.6428C18.9893 24.6099 18.4719 23.9287 18.4847 23.1723C18.4974 22.4172 19.0391 21.7744 19.7751 21.7504C20.873 21.7144 21.9733 21.7176 23.0712 21.758C23.2899 21.7658 23.5053 21.8769 23.6644 21.9589Z" fill="#E64425"/>
<path d="M18.5006 14.8261C18.655 15.6642 19.1674 16.1406 19.9159 16.1469C21.3691 16.1595 22.8222 16.1602 24.2754 16.1469C25.1043 16.1393 25.7151 15.4997 25.7133 14.6834C25.7115 13.8537 25.1176 13.2356 24.2833 13.2141C24.0568 13.208 23.8302 13.2101 23.6037 13.2121C23.3364 13.2145 23.0691 13.2169 22.8022 13.2059C22.5532 13.1958 22.4457 13.2817 22.3431 13.5235C21.7286 14.9776 20.1643 15.5875 18.7682 14.941C18.7213 14.9193 18.6739 14.8994 18.6168 14.8754C18.5823 14.8609 18.5442 14.8449 18.5006 14.8261Z" fill="#E64425"/>
<path d="M23.1821 11.8829C23.0059 11.88 22.8324 11.8772 22.6625 11.8769V8.93083C22.8485 8.93762 23.0417 8.93889 23.2394 8.94019C23.7038 8.94325 24.1929 8.94646 24.6713 9.02175C25.3465 9.12783 25.7722 9.85076 25.7085 10.5674C25.6483 11.2404 25.0921 11.8383 24.4326 11.8737C24.0122 11.8962 23.5903 11.8894 23.1821 11.8829Z" fill="#E64425"/>
<path d="M4.81797 7.90805C5.4325 7.57657 6.09744 7.62582 6.75751 7.62708C9.19804 7.6315 8.78997 7.75336 10.7939 6.18816C11.4479 5.67737 12.0982 5.1609 12.7589 4.66021C13.3212 4.2334 13.9558 4.01242 14.6566 4.01242C15.5037 4.01242 16.3526 3.97706 17.1967 4.02568C17.7104 4.05535 18.2302 4.169 18.7233 4.32558C19.3688 4.53015 19.9912 4.81427 20.6234 5.0643C21.8616 5.55362 22.3741 6.2071 22.5939 7.61887C23.1841 7.62329 23.7859 7.61193 24.3859 7.63592C26.3321 7.71358 27.5691 9.82555 26.7159 11.6256C26.5568 11.9615 26.3084 12.2513 26.1007 12.5639C27.2988 14.1347 27.3025 15.1367 26.0953 16.832C26.7906 17.5739 27.1385 18.4578 26.9278 19.5034C26.7226 20.525 26.1056 21.21 25.1656 21.5996C25.2117 21.6993 25.2397 21.7637 25.2712 21.8262C26.2574 23.7703 25.0253 25.9529 22.9091 25.9902C21.7802 26.0098 20.6507 25.994 19.5212 25.994C17.5732 25.994 15.6251 25.9851 13.6771 25.9984C12.8184 26.0041 12.0351 25.7964 11.3198 25.2925C10.8066 24.9314 10.2692 24.6068 9.75063 24.2539C9.25208 23.9148 8.71649 23.7381 8.11532 23.7507C7.39573 23.7658 6.67554 23.7595 5.95595 23.7526C4.78518 23.7418 4.02005 22.9526 4.00547 21.7423C3.9994 21.2138 3.99636 20.6853 4.00729 20.1575C4.0164 19.7124 4.27084 19.4371 4.64308 19.4402C5.01532 19.4434 5.26004 19.7174 5.26915 20.1689C5.27948 20.6822 5.26672 21.1961 5.27523 21.7094C5.28373 22.2265 5.47319 22.4254 5.97599 22.4324C6.6391 22.4418 7.30343 22.4576 7.96593 22.4298C8.91992 22.3901 9.7731 22.6597 10.5552 23.2197C10.9378 23.4937 11.3538 23.7191 11.7272 24.0058C12.4201 24.5368 13.1846 24.7161 14.0354 24.6851C15.0786 24.6479 16.1243 24.6769 17.1688 24.6757C17.2908 24.6757 17.4129 24.6643 17.5756 24.6561C16.9483 23.3138 17.1396 22.1287 18.11 21.0913C16.9016 19.2742 16.9016 18.3145 18.1148 16.8251C17.943 16.5877 17.7505 16.3572 17.5975 16.1015C17.2125 15.4594 17.1129 14.7535 17.2969 14.0287C17.3789 13.7054 17.3825 13.4225 17.3072 13.0967C17.2125 12.6901 17.2137 12.2589 17.1688 11.7879C16.9331 12.12 16.7279 12.4237 16.5087 12.7166C15.3385 14.2837 13.7876 15.0906 11.8918 15.1942C11.3975 15.2213 11.089 14.9871 11.0617 14.5912C11.0313 14.1575 11.2979 13.9024 11.8341 13.8778C13.7226 13.7894 15.0501 12.7766 16.0332 11.1653C16.4103 10.5472 16.8348 9.9594 17.2331 9.35517C17.4238 9.06537 17.6576 8.87406 18.014 8.98518C18.3863 9.10073 18.4895 9.39305 18.4853 9.76999C18.4755 10.6211 18.4768 11.4722 18.4841 12.3239C18.4913 13.2268 19.0719 13.8683 19.8771 13.879C20.6987 13.8904 21.3047 13.2394 21.309 12.3182C21.3156 10.8212 21.312 9.32423 21.3102 7.82723C21.3096 7.12008 21.0059 6.6276 20.3562 6.37568C19.6433 6.09913 18.9413 5.78913 18.2199 5.53973C17.8647 5.41724 17.4785 5.35915 17.1026 5.34084C16.4546 5.30928 15.8018 5.36926 15.1557 5.32317C14.3256 5.26445 13.6577 5.56877 13.0219 6.09598C12.1298 6.83659 11.1989 7.52669 10.2814 8.23384C9.64801 8.72253 8.92842 8.94477 8.14386 8.94793C7.46617 8.95109 6.78848 8.94793 6.1114 8.94919C5.42764 8.95109 5.2734 9.11525 5.2734 9.8407C5.2734 12.1301 5.27462 14.4201 5.27158 16.7095C5.27158 16.8831 5.2983 17.1085 5.20843 17.2184C5.06087 17.4002 4.82708 17.6168 4.63215 17.6149C4.43723 17.6124 4.20829 17.3901 4.06438 17.2051C3.97633 17.0921 4.00729 16.8686 4.00729 16.6944C4.00426 14.4927 3.98786 12.2911 4.01823 10.0901C4.02551 9.54901 4.18947 9.01044 4.28177 8.4706C4.46152 8.28372 4.64126 8.09683 4.82101 7.90994L4.81797 7.90805ZM18.869 20.0609C19.1793 20.1752 19.4872 20.381 19.8 20.3873C21.3369 20.4208 22.8757 20.4246 24.4132 20.3917C25.1692 20.3759 25.7127 19.7136 25.7127 18.9313C25.7127 18.163 25.1474 17.4949 24.3992 17.4817C22.8617 17.4539 21.3229 17.4558 19.786 17.483C19.1957 17.4931 18.7804 17.8681 18.5745 18.4313C18.3662 19.0002 18.4889 19.5274 18.8703 20.0603L18.869 20.0609ZM23.8139 22.0308C23.6626 21.9721 23.37 21.7688 23.0712 21.758C21.9733 21.7176 20.873 21.7145 19.7751 21.7505C19.0391 21.7745 18.4974 22.4172 18.4847 23.1723C18.4719 23.9287 18.9893 24.61 19.721 24.6428C20.8456 24.694 21.9751 24.687 23.1003 24.6454C23.6845 24.6239 24.0908 24.2425 24.2748 23.6604C24.4533 23.0972 24.3264 22.5934 23.8132 22.0308H23.8139ZM18.5004 14.8255C18.6547 15.6639 19.1672 16.1406 19.9159 16.1469C21.3691 16.1596 22.8222 16.1602 24.2754 16.1469C25.1043 16.1394 25.7151 15.4998 25.7133 14.6834C25.7115 13.8538 25.1176 13.2356 24.2833 13.2142C23.7896 13.2009 23.2953 13.2262 22.8022 13.206C22.5532 13.1959 22.4457 13.2817 22.3431 13.5236C21.7286 14.9776 20.1643 15.5875 18.7682 14.941C18.6929 14.9063 18.6164 14.876 18.5004 14.8261V14.8255ZM22.6625 11.8769C23.226 11.8782 23.8309 11.906 24.4326 11.8738C25.0921 11.8384 25.6483 11.2405 25.7085 10.5674C25.7722 9.85081 25.3465 9.12787 24.6713 9.0218C23.9893 8.91447 23.2855 8.95361 22.6625 8.93088C22.6625 9.96256 22.6625 10.9103 22.6625 11.8775V11.8769Z" fill="white"/>
</svg>
