<svg width="631" height="322" viewBox="0 0 631 322" fill="none" xmlns="http://www.w3.org/2000/svg">
<path d="M47.468 36.098H58.076C70.01 36.098 74.872 41.402 74.872 59.524V107.26C74.872 125.382 70.01 130.686 58.076 130.686H47.468V36.098ZM0.615991 315H66.474C105.812 315 123.05 286.27 123.05 248.7V198.754C123.05 163.394 108.022 155.438 78.408 149.692V148.808C105.37 142.62 121.282 134.222 121.724 106.818V56.872C121.724 23.28 104.486 0.295995 66.916 0.295995H0.615991V315ZM47.468 168.256H56.75C70.01 168.256 76.198 173.56 76.198 193.008V252.678C76.198 272.126 70.01 277.43 56.75 277.43H47.468V168.256ZM223.387 0.295995V264.17C223.387 280.082 218.525 283.618 209.243 283.618C199.519 283.618 194.657 280.082 194.657 264.17V0.295995H147.805V268.148C147.805 309.254 180.071 321.188 208.801 321.188C237.973 321.188 270.239 309.254 270.239 268.148V0.295995H223.387ZM410.357 315L426.711 179.306C428.479 162.51 435.551 81.624 438.203 58.198H439.971C438.645 97.978 438.203 132.896 438.203 170.024V315H479.309V0.295995H409.915L397.097 130.686C394.445 155.88 394.003 195.66 392.677 228.368H390.467C390.025 188.588 385.605 149.692 382.953 130.244L367.925 0.295995H298.531V315H339.637V119.636C339.637 100.63 338.311 77.204 337.869 58.198H339.637C342.731 85.16 347.151 131.128 350.687 163.394L367.483 315H410.357ZM630.228 61.734C630.228 15.766 605.476 0.295995 556.856 0.295995H507.794V315H554.646V194.334H574.094C610.338 194.334 630.228 173.118 630.228 129.802V61.734ZM554.646 37.866H563.044C578.956 37.866 583.376 46.264 583.376 67.922V142.62C583.376 156.764 568.348 156.764 554.646 156.764V37.866Z" fill="#E64425"/>
</svg>
