<svg width="21" height="20" viewBox="0 0 21 20" fill="none" xmlns="http://www.w3.org/2000/svg">
<path d="M1.17546 3.85353C1.70806 3.56625 2.28433 3.60893 2.8564 3.61002C4.97152 3.61385 4.61786 3.71946 6.35458 2.36296C6.92139 1.92027 7.48503 1.47267 8.05763 1.03874C8.54496 0.668833 9.09492 0.477314 9.70225 0.477314C10.4364 0.477314 11.1722 0.44667 11.9037 0.488805C12.3489 0.514523 12.7994 0.613018 13.2268 0.748724C13.7862 0.926016 14.3256 1.17226 14.8735 1.38895C15.9466 1.81302 16.3907 2.37937 16.5813 3.60291C17.0928 3.60674 17.6144 3.59689 18.1343 3.61768C19.821 3.68499 20.8931 5.51536 20.1537 7.07543C20.0158 7.36653 19.8005 7.6177 19.6205 7.88856C20.6589 9.24999 20.662 10.1184 19.6158 11.5876C20.2184 12.2306 20.5199 12.9967 20.3373 13.9028C20.1594 14.7882 19.6247 15.3819 18.8101 15.7195C18.8501 15.806 18.8743 15.8618 18.9016 15.916C19.7563 17.6008 18.6885 19.4924 16.8544 19.5247C15.876 19.5417 14.8972 19.528 13.9183 19.528C12.23 19.528 10.5417 19.5203 8.85336 19.5318C8.1092 19.5368 7.4303 19.3567 6.81034 18.9201C6.36563 18.6071 5.89988 18.3258 5.45043 18.0199C5.01836 17.7261 4.55418 17.5729 4.03316 17.5838C3.40952 17.5969 2.78535 17.5915 2.16171 17.5855C1.14704 17.5762 0.483927 16.8922 0.471296 15.8432C0.466033 15.3852 0.463402 14.9272 0.472875 14.4697C0.480769 14.0839 0.701281 13.8454 1.02389 13.8481C1.3465 13.8508 1.55859 14.0883 1.56649 14.4796C1.57543 14.9244 1.56438 15.3699 1.57175 15.8147C1.57912 16.2629 1.74332 16.4352 2.17908 16.4413C2.75377 16.4495 3.32952 16.4632 3.9037 16.4391C4.73048 16.4046 5.46991 16.6383 6.14776 17.1236C6.47931 17.3611 6.83981 17.5565 7.16348 17.8049C7.76396 18.2651 8.42655 18.4205 9.16387 18.3937C10.068 18.3614 10.9743 18.3866 11.8795 18.3855C11.9853 18.3855 12.091 18.3756 12.2321 18.3685C11.6884 17.2052 11.8542 16.1781 12.6952 15.279C11.6479 13.7042 11.6479 12.8724 12.6994 11.5816C12.5505 11.3759 12.3836 11.1761 12.251 10.9545C11.9174 10.398 11.8311 9.78624 11.9905 9.15806C12.0616 8.87789 12.0647 8.63275 11.9995 8.3504C11.9174 7.998 11.9184 7.62426 11.8795 7.21605C11.6753 7.50388 11.4974 7.76708 11.3074 8.02098C10.2933 9.37913 8.94914 10.0784 7.3061 10.1682C6.87771 10.1917 6.61036 9.98871 6.58667 9.64561C6.56036 9.26969 6.7914 9.04862 7.2561 9.02728C8.89283 8.95067 10.0433 8.07297 10.8953 6.67652C11.2221 6.14081 11.59 5.63137 11.9353 5.1077C12.1005 4.85654 12.3031 4.69074 12.6121 4.78704C12.9347 4.88718 13.0241 5.14053 13.0204 5.46721C13.012 6.20483 13.0131 6.94246 13.0194 7.68063C13.0257 8.46312 13.5288 9.01907 14.2267 9.02837C14.9387 9.03822 15.464 8.47406 15.4677 7.6757C15.4734 6.37829 15.4703 5.08089 15.4687 3.78348C15.4682 3.17062 15.205 2.74381 14.6419 2.52548C14.0241 2.2858 13.4157 2.01713 12.7905 1.80099C12.4826 1.69483 12.1479 1.64449 11.8221 1.62862C11.2606 1.60126 10.6948 1.65324 10.1349 1.6133C9.41543 1.56241 8.83652 1.82616 8.28551 2.28307C7.5124 2.92493 6.70561 3.52302 5.9104 4.13588C5.36149 4.55941 4.73785 4.75202 4.0579 4.75476C3.47057 4.75749 2.88324 4.75476 2.29644 4.75585C1.70384 4.7575 1.57017 4.89977 1.57017 5.5285C1.57017 7.51264 1.57122 9.49732 1.56859 11.4815C1.56859 11.6319 1.59175 11.8273 1.51386 11.9225C1.38597 12.0801 1.18335 12.2678 1.01442 12.2661C0.845482 12.264 0.647074 12.0713 0.522346 11.911C0.446035 11.8131 0.472875 11.6194 0.472875 11.4683C0.470244 9.56025 0.456034 7.65217 0.482348 5.74464C0.488663 5.27569 0.630759 4.80893 0.710754 4.34108C0.866533 4.17911 1.02231 4.01714 1.17809 3.85517L1.17546 3.85353ZM13.3531 14.386C13.622 14.485 13.8888 14.6634 14.1598 14.6689C15.4919 14.6979 16.8255 14.7012 18.158 14.6727C18.8132 14.659 19.2842 14.085 19.2842 13.4071C19.2842 12.7411 18.7943 12.1622 18.1459 12.1507C16.8134 12.1266 15.4798 12.1283 14.1477 12.1518C13.6362 12.1605 13.2762 12.4856 13.0978 12.9737C12.9173 13.4667 13.0236 13.9236 13.3541 14.3854L13.3531 14.386ZM17.6386 16.0932C17.5075 16.0424 17.2538 15.8662 16.9949 15.8569C16.0434 15.8218 15.0898 15.8191 14.1383 15.8503C13.5004 15.8711 13.031 16.4281 13.0199 17.0826C13.0089 17.7381 13.4573 18.3286 14.0914 18.357C15.0661 18.4013 16.045 18.3953 17.0202 18.3592C17.5265 18.3406 17.8785 18.0101 18.038 17.5056C18.1927 17.0175 18.0833 16.5808 17.6386 16.0932ZM13.0336 9.84862C13.1673 10.5753 13.6115 10.9884 14.2604 10.9939C15.5198 11.0049 16.7791 11.0054 18.0385 10.9939C18.7569 10.9873 19.2863 10.433 19.2848 9.7255C19.2832 9.00649 18.7685 8.47078 18.0454 8.45217C17.6175 8.44068 17.1891 8.46257 16.7618 8.44506C16.546 8.43631 16.4529 8.51073 16.3639 8.7203C15.8313 9.9805 14.4756 10.5091 13.2657 9.94876C13.2004 9.91866 13.1341 9.89185 13.0336 9.84862ZM16.6407 7.29321C17.1291 7.2943 17.6533 7.31838 18.1748 7.29047C18.7464 7.25983 19.2285 6.74163 19.2806 6.15832C19.3358 5.53725 18.9669 4.91071 18.3817 4.81878C17.7907 4.72576 17.1807 4.75968 16.6407 4.73998C16.6407 5.63411 16.6407 6.4549 16.6407 7.29321Z" fill="white"/>
</svg>
