<svg width="31" height="30" viewBox="0 0 31 30" fill="none" xmlns="http://www.w3.org/2000/svg">
<path d="M1.42396 5.5441C2.24334 5.10213 3.12992 5.1678 4.01002 5.16948C7.26405 5.17537 6.71996 5.33785 9.39184 3.25092C10.2638 2.56987 11.131 1.88124 12.0119 1.21366C12.7617 0.644574 13.6078 0.34993 14.5421 0.34993C15.6716 0.34993 16.8035 0.302786 17.9289 0.367608C18.6139 0.407174 19.307 0.558706 19.9644 0.767483C20.8251 1.04024 21.655 1.41907 22.4978 1.75244C24.1487 2.40487 24.8321 3.27617 25.1252 5.15853C25.9122 5.16443 26.7146 5.14927 27.5145 5.18126C30.1095 5.28481 31.7588 8.10077 30.6212 10.5009C30.409 10.9487 30.0779 11.3351 29.801 11.7518C31.3985 13.8464 31.4033 15.1824 29.7937 17.4427C30.7208 18.4319 31.1847 19.6104 30.9038 21.0045C30.6301 22.3666 29.8075 23.28 28.5541 23.7995C28.6156 23.9325 28.6529 24.0183 28.695 24.1017C30.0099 26.6937 28.3671 29.604 25.5454 29.6536C24.0402 29.6797 22.5343 29.6587 21.0283 29.6587C18.4309 29.6587 15.8335 29.6469 13.2361 29.6646C12.0913 29.6722 11.0468 29.3952 10.093 28.7234C9.40884 28.2419 8.69229 27.8092 8.00084 27.3386C7.33611 26.8865 6.62199 26.6508 5.82042 26.6676C4.86097 26.6878 3.90071 26.6794 2.94126 26.6701C1.38024 26.6558 0.360062 25.6035 0.34063 23.9897C0.332533 23.2851 0.328485 22.5805 0.343059 21.8767C0.355204 21.2832 0.694452 20.9161 1.19078 20.9204C1.6871 20.9246 2.01339 21.2899 2.02554 21.8918C2.0393 22.5763 2.0223 23.2615 2.03363 23.9459C2.04497 24.6354 2.29758 24.9006 2.96798 24.9098C3.85213 24.9225 4.7379 24.9435 5.62124 24.9065C6.89322 24.8534 8.0308 25.2129 9.07364 25.9596C9.58373 26.325 10.1383 26.6255 10.6363 27.0077C11.5601 27.7157 12.5795 27.9548 13.7138 27.9135C15.1048 27.8639 16.4991 27.9026 17.8917 27.9009C18.0544 27.9009 18.2172 27.8858 18.4341 27.8748C17.5978 26.0851 17.8528 24.5049 19.1466 23.1218C17.5354 20.699 17.5354 19.4194 19.1531 17.4334C18.924 17.1169 18.6673 16.8096 18.4633 16.4687C17.95 15.6125 17.8172 14.6714 18.0625 13.7049C18.1718 13.2739 18.1767 12.8968 18.0763 12.4624C17.95 11.9202 17.9516 11.3452 17.8917 10.7172C17.5775 11.16 17.3039 11.565 17.0116 11.9556C15.4514 14.045 13.3835 15.1209 10.8557 15.259C10.1966 15.2952 9.78534 14.9828 9.7489 14.455C9.70842 13.8767 10.0639 13.5366 10.7788 13.5037C13.2968 13.3859 15.0668 12.0355 16.3776 9.88717C16.8804 9.063 17.4464 8.27925 17.9775 7.4736C18.2317 7.0872 18.5435 6.83212 19.0187 6.98028C19.515 7.13434 19.6527 7.52411 19.647 8.02669C19.6341 9.1615 19.6357 10.2963 19.6454 11.4319C19.6551 12.6358 20.4292 13.4911 21.5028 13.5054C22.5982 13.5206 23.4063 12.6526 23.4119 11.4244C23.4209 9.42836 23.416 7.43235 23.4136 5.43634C23.4128 4.49348 23.0079 3.83684 22.1416 3.50095C21.191 3.13222 20.2551 2.71888 19.2932 2.38635C18.8195 2.22303 18.3046 2.14558 17.8034 2.12117C16.9395 2.07907 16.0691 2.15905 15.2076 2.09759C14.1008 2.0193 13.2102 2.42507 12.3625 3.12801C11.1731 4.11549 9.93188 5.03562 8.70849 5.97849C7.86401 6.63007 6.90456 6.9264 5.85848 6.93061C4.95489 6.93482 4.05131 6.93061 3.14854 6.9323C2.23686 6.93482 2.0312 7.1537 2.0312 8.12098C2.0312 11.1735 2.03282 14.2269 2.02878 17.2794C2.02878 17.5109 2.0644 17.8114 1.94457 17.9579C1.74782 18.2004 1.4361 18.4891 1.1762 18.4866C0.9163 18.4832 0.611057 18.1869 0.419167 17.9402C0.301766 17.7895 0.343059 17.4915 0.343059 17.2592C0.33901 14.3237 0.31715 11.3882 0.357633 8.45351C0.367349 7.73205 0.585957 7.01396 0.709026 6.29418C0.948686 6.04499 1.18835 5.79581 1.42801 5.54663L1.42396 5.5441ZM20.1587 21.7479C20.5725 21.9003 20.983 22.1747 21.3999 22.1831C23.4492 22.2277 25.5009 22.2328 27.5509 22.189C28.559 22.168 29.2836 21.2849 29.2836 20.2418C29.2836 19.2173 28.5298 18.3266 27.5323 18.309C25.4823 18.2719 23.4306 18.2744 21.3813 18.3106C20.5943 18.3241 20.0405 18.8242 19.766 19.5751C19.4883 20.3336 19.6519 21.0365 20.1603 21.747L20.1587 21.7479ZM26.7518 24.3744C26.5502 24.2961 26.1599 24.0251 25.7616 24.0108C24.2977 23.9569 22.8306 23.9527 21.3667 24.0007C20.3854 24.0326 19.6632 24.8896 19.6462 25.8965C19.6292 26.905 20.319 27.8134 21.2947 27.8571C22.7942 27.9253 24.3001 27.9161 25.8005 27.8605C26.5793 27.8319 27.121 27.3234 27.3663 26.5472C27.6044 25.7963 27.4352 25.1245 26.751 24.3744H26.7518ZM19.6673 14.7673C19.8729 15.8853 20.5563 16.5209 21.5546 16.5293C23.4921 16.5461 25.4296 16.547 27.3671 16.5293C28.4723 16.5192 29.2869 15.6664 29.2844 14.5779C29.282 13.4717 28.4901 12.6476 27.3777 12.6189C26.7194 12.6013 26.0604 12.6349 25.4029 12.608C25.0709 12.5945 24.9276 12.709 24.7908 13.0314C23.9714 14.9702 21.8857 15.7834 20.0243 14.9214C19.9239 14.8751 19.8219 14.8347 19.6673 14.7682V14.7673ZM25.2167 10.8359C25.9681 10.8376 26.7745 10.8746 27.5768 10.8317C28.4561 10.7846 29.1978 9.98735 29.2779 9.08994C29.363 8.13445 28.7954 7.17054 27.895 7.02911C26.9858 6.886 26.0474 6.93819 25.2167 6.90788C25.2167 8.28345 25.2167 9.54706 25.2167 10.8368V10.8359Z" fill="white"/>
</svg>
