<svg width="40" height="40" viewBox="0 0 40 40" fill="none" xmlns="http://www.w3.org/2000/svg">
<mask id="mask0_323_884" style="mask-type:alpha" maskUnits="userSpaceOnUse" x="0" y="0" width="40" height="40">
<rect width="40" height="40" fill="#D9D9D9"/>
</mask>
<g mask="url(#mask0_323_884)">
<path d="M7.08363 31.4422V28.9423H10.417V16.8589C10.417 14.5961 11.1167 12.5956 12.5163 10.8574C13.9159 9.11911 15.7161 8.00426 17.917 7.51282V6.34615C17.917 5.75854 18.1173 5.26441 18.5179 4.86378C18.9185 4.46314 19.4126 4.26282 20.0003 4.26282C20.5879 4.26282 21.082 4.46314 21.4826 4.86378C21.8832 5.26441 22.0836 5.75854 22.0836 6.34615V7.51282C24.2844 8.00426 26.0846 9.11911 27.4842 10.8574C28.8838 12.5956 29.5836 14.5961 29.5836 16.8589V28.9423H32.9169V31.4422H7.08363ZM20.0003 36.3461C19.1798 36.3461 18.4725 36.0544 17.8785 35.4711C17.2845 34.8877 16.9875 34.1751 16.9875 33.3333H23.0131C23.0131 34.1751 22.7214 34.8877 22.1381 35.4711C21.5547 36.0544 20.8421 36.3461 20.0003 36.3461ZM12.9169 28.9423H27.0836V16.8589C27.0836 14.8974 26.3935 13.2264 25.0131 11.8461C23.6328 10.4657 21.9618 9.77557 20.0003 9.77557C18.0387 9.77557 16.3678 10.4657 14.9874 11.8461C13.6071 13.2264 12.9169 14.8974 12.9169 16.8589V28.9423Z" fill="white"/>
</g>
<circle cx="27" cy="9" r="5" fill="#E64425"/>
</svg>
