<svg width="58" height="58" viewBox="0 0 58 58" fill="none" xmlns="http://www.w3.org/2000/svg">
<mask id="mask0_64_209" style="mask-type:alpha" maskUnits="userSpaceOnUse" x="0" y="0" width="58" height="58">
<rect width="58" height="58" fill="#D9D9D9"/>
</mask>
<g mask="url(#mask0_64_209)">
<path d="M30.2085 51.0752L29.8368 44.7083H27.7918C22.4132 44.7083 17.8463 42.8307 14.0912 39.0756C10.3361 35.3205 8.4585 30.7536 8.4585 25.375C8.4585 19.9964 10.3361 15.4295 14.0912 11.6744C17.8463 7.9193 22.4132 6.04173 27.7918 6.04173C30.4811 6.04173 32.9946 6.54444 35.3322 7.54985C37.6698 8.55523 39.717 9.93627 41.4738 11.693C43.2305 13.4497 44.6115 15.4969 45.6169 17.8346C46.6223 20.1722 47.125 22.6857 47.125 25.375C47.125 28.117 46.6975 30.7497 45.8423 33.2733C44.9872 35.7968 43.8122 38.1577 42.3173 40.3559C40.8224 42.5541 39.0401 44.5618 36.9704 46.379C34.9008 48.1961 32.6468 49.7615 30.2085 51.0752ZM33.8334 44.3458C36.6932 41.9292 39.0192 39.0997 40.8116 35.8573C42.6039 32.6149 43.5001 29.1208 43.5001 25.375C43.5001 20.9847 41.9796 17.2691 38.9386 14.2281C35.8977 11.1872 32.182 9.66667 27.7918 9.66667C23.4015 9.66667 19.6859 11.1872 16.6449 14.2281C13.6039 17.2691 12.0834 20.9847 12.0834 25.375C12.0834 29.7653 13.6039 33.4809 16.6449 36.5219C19.6859 39.5629 23.4015 41.0833 27.7918 41.0833H33.8334V44.3458ZM27.8011 38.1182C28.3928 38.1182 28.8955 37.9114 29.3091 37.4978C29.7227 37.0842 29.9296 36.5815 29.9296 35.9897C29.9296 35.398 29.7227 34.8953 29.3091 34.4817C28.8955 34.0681 28.3928 33.8612 27.8011 33.8612C27.2093 33.8612 26.7066 34.0681 26.293 34.4817C25.8794 34.8953 25.6726 35.398 25.6726 35.9897C25.6726 36.5815 25.8794 37.0842 26.293 37.4978C26.7066 37.9114 27.2093 38.1182 27.8011 38.1182ZM26.3976 30.7474H29.2789C29.3099 29.6475 29.4656 28.8327 29.746 28.3029C30.0264 27.773 30.7878 26.8869 32.0302 25.6445C32.7397 24.935 33.3168 24.1884 33.7614 23.4045C34.206 22.6206 34.4283 21.7531 34.4283 20.8019C34.4283 18.9027 33.78 17.4473 32.4834 16.4357C31.1867 15.4241 29.6383 14.9183 27.8382 14.9183C26.2055 14.9183 24.8275 15.3691 23.7044 16.2707C22.5813 17.1723 21.778 18.2583 21.2947 19.5285L23.9809 20.5788C24.2442 19.8786 24.6733 19.2156 25.2682 18.5897C25.8631 17.9639 26.7198 17.651 27.8382 17.651C29.0652 17.651 29.9776 17.9879 30.5756 18.6617C31.1736 19.3356 31.4726 20.0738 31.4726 20.8763C31.4726 21.623 31.2673 22.2721 30.8568 22.8235C30.4463 23.3751 29.9358 23.956 29.3254 24.5664C28.0397 25.6818 27.2302 26.619 26.8972 27.3781C26.5641 28.1371 26.3976 29.2603 26.3976 30.7474Z" fill="#FF2E00"/>
</g>
</svg>
