<svg width="17" height="20" viewBox="0 0 17 20" fill="none" xmlns="http://www.w3.org/2000/svg">
<path d="M2.75005 19.3078C2.24493 19.3078 1.81738 19.1328 1.46738 18.7828C1.11738 18.4328 0.942375 18.0052 0.942375 17.5001V4.80786H2.44235V17.5001C2.44235 17.577 2.4744 17.6475 2.5385 17.7116C2.6026 17.7757 2.67312 17.8078 2.75005 17.8078H12.4423V19.3078H2.75005ZM6.25003 15.8078C5.74489 15.8078 5.31732 15.6328 4.96732 15.2828C4.61734 14.9328 4.44235 14.5052 4.44235 14.0001V2.61554C4.44235 2.11042 4.61734 1.68286 4.96732 1.33286C5.31732 0.982861 5.74489 0.807861 6.25003 0.807861H14.6346C15.1397 0.807861 15.5673 0.982861 15.9173 1.33286C16.2673 1.68286 16.4423 2.11042 16.4423 2.61554V14.0001C16.4423 14.5052 16.2673 14.9328 15.9173 15.2828C15.5673 15.6328 15.1397 15.8078 14.6346 15.8078H6.25003ZM6.25003 14.3078H14.6346C14.7115 14.3078 14.782 14.2758 14.8462 14.2117C14.9103 14.1476 14.9423 14.077 14.9423 14.0001V2.61554C14.9423 2.5386 14.9103 2.46809 14.8462 2.40399C14.782 2.33989 14.7115 2.30784 14.6346 2.30784H6.25003C6.17309 2.30784 6.10257 2.33989 6.03848 2.40399C5.97436 2.46809 5.9423 2.5386 5.9423 2.61554V14.0001C5.9423 14.077 5.97436 14.1476 6.03848 14.2117C6.10257 14.2758 6.17309 14.3078 6.25003 14.3078Z" fill="white"/>
</svg>
