<svg width="24" height="24" viewBox="4 4 24 24" fill="none" xmlns="http://www.w3.org/2000/svg">
<g opacity="0.5">
<mask id="mask0_255_332" style="mask-type:alpha" maskUnits="userSpaceOnUse" x="0" y="0" width="24" height="24">
<rect width="24" height="24" fill="#D9D9D9"/>
</mask>
<g mask="url(#mask0_255_332)">
<path d="M7.30773 20.5C6.80901 20.5 6.38306 20.3234 6.02986 19.9702C5.67664 19.617 5.50003 19.191 5.50003 18.6923V6.00005H4.50003V4.50008H9.00001V3.61548H15V4.50008H19.5V6.00005H18.5V18.6923C18.5 19.1975 18.325 19.625 17.975 19.975C17.625 20.325 17.1974 20.5 16.6923 20.5H7.30773ZM17 6.00005H7.00001V18.6923C7.00001 18.7821 7.02886 18.8558 7.08656 18.9135C7.14426 18.9712 7.21798 19.0001 7.30773 19.0001H16.6923C16.7692 19.0001 16.8397 18.968 16.9039 18.9039C16.968 18.8398 17 18.7693 17 18.6923V6.00005ZM9.40388 17.0001H10.9039V8.00005H9.40388V17.0001ZM13.0962 17.0001H14.5961V8.00005H13.0962V17.0001Z" fill="white"/>
</g>
</g>
</svg>
