<svg width="24" height="24" viewBox="0 0 24 24" fill="none"  xmlns="http://www.w3.org/2000/svg">
<path d="M3.30773 17.5C2.80901 17.5 2.38306 17.3234 2.02986 16.9702C1.67664 16.617 1.50003 16.191 1.50003 15.6923V3.00005H0.500031V1.50008H5.00001V0.615479H11V1.50008H15.5V3.00005H14.5V15.6923C14.5 16.1975 14.325 16.625 13.975 16.975C13.625 17.325 13.1974 17.5 12.6923 17.5H3.30773ZM13 3.00005H3.00001V15.6923C3.00001 15.7821 3.02886 15.8558 3.08656 15.9135C3.14426 15.9712 3.21798 16.0001 3.30773 16.0001H12.6923C12.7692 16.0001 12.8397 15.968 12.9039 15.9039C12.968 15.8398 13 15.7693 13 15.6923V3.00005ZM5.40388 14.0001H6.90386V5.00005H5.40388V14.0001ZM9.09616 14.0001H10.5961V5.00005H9.09616V14.0001Z" fill="#E64425"/>
</svg>
