<svg width="22" height="22" viewBox="0 0 25 25" fill="none" xmlns="http://www.w3.org/2000/svg">
<path d="M2.63462 25C2.00321 25 1.46875 24.7813 1.03125 24.3438C0.59375 23.9062 0.375 23.3718 0.375 22.7403V6.00966C0.375 5.37824 0.59375 4.84378 1.03125 4.40628C1.46875 3.96878 2.00321 3.75003 2.63462 3.75003H13.3101L11.4351 5.625H2.63462C2.53846 5.625 2.4503 5.66506 2.37016 5.74519C2.29003 5.82533 2.24997 5.91349 2.24997 6.00966V22.7403C2.24997 22.8365 2.29003 22.9247 2.37016 23.0048C2.4503 23.0849 2.53846 23.125 2.63462 23.125H19.3653C19.4615 23.125 19.5496 23.0849 19.6298 23.0048C19.7099 22.9247 19.75 22.8365 19.75 22.7403V13.9206L21.6249 12.0457V22.7403C21.6249 23.3718 21.4062 23.9062 20.9687 24.3438C20.5312 24.7813 19.9967 25 19.3653 25H2.63462ZM16.6635 4.27647L18.012 5.59375L9.74997 13.8437V15.625H11.5L19.8052 7.34375L21.1298 8.649L12.31 17.5H7.875V13.0649L16.6635 4.27647ZM21.1298 8.649L16.6635 4.27647L19.524 1.4159C19.9679 0.972009 20.5068 0.750061 21.1406 0.750061C21.7744 0.750061 22.3069 0.976019 22.7379 1.42794L23.9591 2.65625C24.3901 3.09535 24.6057 3.6246 24.6057 4.244C24.6057 4.86337 24.3861 5.39261 23.947 5.83172L21.1298 8.649Z" fill="white"/>
</svg>
