<svg width="29" height="29" viewBox="-5  1 25 25" fill="none" xmlns="http://www.w3.org/2000/svg">
<path d="M2.3077 20.2C1.80257 20.2 1.375 20.025 1.025 19.675C0.675 19.325 0.5 18.8974 0.5 18.3923V5.00772C0.5 4.50259 0.675 4.07502 1.025 3.72502C1.375 3.37502 1.80257 3.20002 2.3077 3.20002H10.8481L9.34808 4.7H2.3077C2.23077 4.7 2.16024 4.73205 2.09612 4.79615C2.03202 4.86027 1.99997 4.93079 1.99997 5.00772V18.3923C1.99997 18.4692 2.03202 18.5397 2.09612 18.6038C2.16024 18.6679 2.23077 18.7 2.3077 18.7H15.6923C15.7692 18.7 15.8397 18.6679 15.9038 18.6038C15.9679 18.5397 16 18.4692 16 18.3923V11.3365L17.5 9.83655V18.3923C17.5 18.8974 17.325 19.325 16.975 19.675C16.625 20.025 16.1974 20.2 15.6923 20.2H2.3077ZM13.5308 3.62117L14.6096 4.675L7.99998 11.275V12.7H9.39998L16.0442 6.075L17.1038 7.1192L10.048 14.2H6.5V10.6519L13.5308 3.62117ZM17.1038 7.1192L13.5308 3.62117L15.8192 1.33272C16.1743 0.977607 16.6054 0.800049 17.1125 0.800049C17.6195 0.800049 18.0455 0.980816 18.3904 1.34235L19.3673 2.325C19.7121 2.67628 19.8846 3.09968 19.8846 3.5952C19.8846 4.0907 19.7089 4.51409 19.3576 4.86537L17.1038 7.1192Z" fill="#E64425"/>
</svg>
