<svg width="25" height="24" viewBox="0 0 25 24" fill="none" xmlns="http://www.w3.org/2000/svg">
<mask id="mask0_851_3030" style="mask-type:alpha" maskUnits="userSpaceOnUse" x="0" y="0" width="25" height="24">
<rect x="0.865479" width="24" height="24" fill="#D9D9D9"/>
</mask>
<g mask="url(#mask0_851_3030)">
<path d="M9.74238 20.5001H5.86545C5.45297 20.5001 5.09985 20.3532 4.8061 20.0595C4.51235 19.7657 4.36548 19.4126 4.36548 19.0001V15.1232C5.0501 15.0398 5.63791 14.7552 6.12893 14.2693C6.61995 13.7834 6.86545 13.1937 6.86545 12.5001C6.86545 11.8065 6.61995 11.2168 6.12893 10.7309C5.63791 10.245 5.0501 9.96039 4.36548 9.87704V6.00011C4.36548 5.58763 4.51235 5.23451 4.8061 4.94076C5.09985 4.64701 5.45297 4.50014 5.86545 4.50014H9.86545C9.9552 3.86425 10.2337 3.3399 10.701 2.92709C11.1683 2.51427 11.7232 2.30786 12.3655 2.30786C13.0078 2.30786 13.5626 2.51427 14.0299 2.92709C14.4972 3.3399 14.7757 3.86425 14.8655 4.50014H18.8655C19.2779 4.50014 19.6311 4.64701 19.9248 4.94076C20.2186 5.23451 20.3654 5.58763 20.3654 6.00011V10.0001C21.0013 10.0899 21.5257 10.3684 21.9385 10.8357C22.3513 11.303 22.5577 11.8578 22.5577 12.5001C22.5577 13.1424 22.3513 13.6972 21.9385 14.1645C21.5257 14.6318 21.0013 14.9104 20.3654 15.0001V19.0001C20.3654 19.4126 20.2186 19.7657 19.9248 20.0595C19.6311 20.3532 19.2779 20.5001 18.8655 20.5001H14.9885C14.8988 19.7821 14.6058 19.186 14.1097 18.7116C13.6135 18.2373 13.0321 18.0001 12.3655 18.0001C11.6988 18.0001 11.1174 18.2373 10.6212 18.7116C10.1251 19.186 9.83213 19.7821 9.74238 20.5001ZM5.86545 19.0001H8.57703C8.91933 18.1181 9.46003 17.4809 10.1991 17.0886C10.9382 16.6963 11.6603 16.5001 12.3655 16.5001C13.0706 16.5001 13.7927 16.6963 14.5318 17.0886C15.2709 17.4809 15.8116 18.1181 16.1539 19.0001H18.8655V13.5578H20.0962C20.4026 13.5194 20.6395 13.3957 20.8068 13.1867C20.9741 12.9777 21.0577 12.7488 21.0577 12.5001C21.0577 12.2514 20.9741 12.0225 20.8068 11.8135C20.6395 11.6046 20.4026 11.4809 20.0962 11.4424H18.8655V6.00011H13.4232V4.76939C13.3847 4.46297 13.261 4.2261 13.052 4.05879C12.843 3.89149 12.6142 3.80784 12.3655 3.80784C12.1167 3.80784 11.8879 3.89149 11.6789 4.05879C11.4699 4.2261 11.3462 4.46297 11.3077 4.76939V6.00011H5.86545V8.73861C6.62442 9.05271 7.23082 9.55174 7.68465 10.2357C8.1385 10.9197 8.36543 11.6755 8.36543 12.5031C8.36543 13.3165 8.1385 14.0652 7.68465 14.7491C7.23082 15.4331 6.62442 15.9373 5.86545 16.2616V19.0001Z" fill="white"/>
</g>
</svg>
