<svg width="16" height="25" viewBox="0 0 16 25" fill="none" xmlns="http://www.w3.org/2000/svg">
<path d="M6.58331 24.7501V21.9167H3.74998V19.0834H6.58331V16.1084C4.71804 15.7779 3.18922 14.8865 1.99685 13.4345C0.804494 11.9824 0.208313 10.3001 0.208313 8.38758C0.208313 6.23897 0.969771 4.41501 2.49269 2.91571C4.0156 1.4164 5.85137 0.666748 7.99998 0.666748C10.1486 0.666748 11.9844 1.4164 13.5073 2.91571C15.0302 4.41501 15.7916 6.23897 15.7916 8.38758C15.7916 10.3001 15.1955 11.9824 14.0031 13.4345C12.8107 14.8865 11.2819 15.7779 9.41665 16.1084V19.0834H12.25V21.9167H9.41665V24.7501H6.58331ZM7.99998 13.4167C9.36942 13.4167 10.5382 12.9327 11.5062 11.9647C12.4743 10.9966 12.9583 9.82786 12.9583 8.45842C12.9583 7.08897 12.4743 5.92022 11.5062 4.95217C10.5382 3.98411 9.36942 3.50008 7.99998 3.50008C6.63054 3.50008 5.46179 3.98411 4.49373 4.95217C3.52567 5.92022 3.04165 7.08897 3.04165 8.45842C3.04165 9.82786 3.52567 10.9966 4.49373 11.9647C5.46179 12.9327 6.63054 13.4167 7.99998 13.4167Z" fill="#AD00FF"/>
</svg>
