<svg width="34" height="34" viewBox="0 0 34 34" fill="none" xmlns="http://www.w3.org/2000/svg">
<mask id="mask0_105_467" style="mask-type:alpha" maskUnits="userSpaceOnUse" x="0" y="0" width="34" height="34">
<rect width="34" height="34" fill="#AD00FF"/>
</mask>
<g mask="url(#mask0_105_467)">
<path d="M15.5833 29.7501V26.9167H12.7499V24.0834H15.5833V21.1084C13.718 20.7779 12.1892 19.8865 10.9968 18.4345C9.80443 16.9824 9.20825 15.3001 9.20825 13.3876C9.20825 11.239 9.96971 9.41501 11.4926 7.91571C13.0155 6.4164 14.8513 5.66675 16.9999 5.66675C19.1485 5.66675 20.9843 6.4164 22.5072 7.91571C24.0301 9.41501 24.7916 11.239 24.7916 13.3876C24.7916 15.3001 24.1954 16.9824 23.003 18.4345C21.8107 19.8865 20.2819 20.7779 18.4166 21.1084V24.0834H21.2499V26.9167H18.4166V29.7501H15.5833ZM16.9999 18.4167C18.3694 18.4167 19.5381 17.9327 20.5062 16.9647C21.4742 15.9966 21.9583 14.8279 21.9583 13.4584C21.9583 12.089 21.4742 10.9202 20.5062 9.95217C19.5381 8.98411 18.3694 8.50008 16.9999 8.50008C15.6305 8.50008 14.4617 8.98411 13.4937 9.95217C12.5256 10.9202 12.0416 12.089 12.0416 13.4584C12.0416 14.8279 12.5256 15.9966 13.4937 16.9647C14.4617 17.9327 15.6305 18.4167 16.9999 18.4167Z" fill="white"/>
</g>
</svg>
