<svg width="344" height="317" viewBox="0 0 344 317" fill="none" xmlns="http://www.w3.org/2000/svg">
<path d="M12.84 56.8202C22 52.0702 31.91 52.7802 41.75 52.7902C78.14 52.8502 72.05 54.6002 101.92 32.1602C111.67 24.8402 121.36 17.4402 131.21 10.2502C139.6 4.13022 149.05 0.960228 159.5 0.960228C172.13 0.960228 184.78 0.460215 197.37 1.15022C205.03 1.57022 212.78 3.21022 220.13 5.45022C229.75 8.38022 239.03 12.4602 248.46 16.0402C266.92 23.0602 274.56 32.4302 277.83 52.6702C286.63 52.7402 295.6 52.5702 304.54 52.9102C333.55 54.0202 352 84.3002 339.28 110.11C336.91 114.92 333.21 119.08 330.11 123.56C347.97 146.08 348.02 160.45 330.03 184.75C340.4 195.39 345.58 208.06 342.44 223.05C339.38 237.69 330.18 247.52 316.17 253.1C316.86 254.53 317.27 255.45 317.74 256.35C332.44 284.23 314.08 315.52 282.52 316.05C265.69 316.33 248.85 316.11 232.02 316.11C202.98 316.11 173.94 315.98 144.9 316.17C132.1 316.25 120.42 313.28 109.76 306.05C102.11 300.87 94.1 296.22 86.37 291.16C78.93 286.3 70.96 283.76 62 283.94C51.27 284.16 40.54 284.06 29.81 283.97C12.36 283.82 0.949985 272.5 0.739985 255.15C0.649985 247.58 0.609989 240 0.759989 232.43C0.889989 226.05 4.68998 222.1 10.24 222.14C15.79 222.19 19.44 226.11 19.57 232.59C19.72 239.95 19.53 247.32 19.66 254.68C19.79 262.1 22.61 264.94 30.1 265.04C39.99 265.17 49.89 265.4 59.77 265C74 264.43 86.71 268.29 98.37 276.32C104.08 280.25 110.28 283.48 115.84 287.59C126.16 295.2 137.57 297.77 150.25 297.33C165.8 296.79 181.39 297.21 196.96 297.19C198.78 297.19 200.6 297.03 203.02 296.91C193.67 277.66 196.52 260.67 210.99 245.8C192.97 219.75 192.98 205.99 211.06 184.64C208.5 181.23 205.63 177.93 203.35 174.27C197.61 165.06 196.13 154.94 198.87 144.55C200.1 139.91 200.15 135.86 199.02 131.19C197.61 125.36 197.63 119.18 196.95 112.43C193.44 117.19 190.37 121.54 187.11 125.74C169.66 148.21 146.55 159.77 118.28 161.26C110.91 161.65 106.32 158.29 105.9 152.61C105.45 146.39 109.43 142.74 117.42 142.38C145.57 141.11 165.37 126.59 180.02 103.49C185.64 94.6202 191.97 86.2002 197.91 77.5402C200.76 73.3902 204.23 70.6402 209.55 72.2302C215.1 73.8902 216.64 78.0802 216.58 83.4802C216.43 95.6802 216.45 107.89 216.56 120.09C216.67 133.03 225.32 142.23 237.33 142.38C249.58 142.54 258.61 133.21 258.67 120C258.77 98.5402 258.72 77.0702 258.69 55.6102C258.68 45.4702 254.16 38.4102 244.47 34.8002C233.84 30.8402 223.38 26.3902 212.62 22.8202C207.33 21.0602 201.56 20.2302 195.97 19.9702C186.31 19.5202 176.58 20.3702 166.95 19.7202C154.57 18.8702 144.61 23.2402 135.14 30.8002C121.84 41.4202 107.96 51.3102 94.28 61.4502C84.83 68.4502 74.11 71.6402 62.42 71.6902C52.32 71.7402 42.22 71.6902 32.12 71.7102C21.93 71.7302 19.63 74.0902 19.62 84.4902C19.62 117.32 19.64 150.14 19.59 182.97C19.59 185.46 19.98 188.69 18.65 190.27C16.45 192.87 12.97 195.99 10.06 195.95C7.14998 195.92 3.73998 192.73 1.58998 190.07C0.279983 188.45 0.739985 185.24 0.739985 182.75C0.699985 151.19 0.449989 119.62 0.899989 88.0602C1.00999 80.3002 3.45999 72.5802 4.82999 64.8402C7.50999 62.1602 10.19 59.4802 12.87 56.8002L12.84 56.8202ZM222.3 231.06C226.92 232.7 231.52 235.65 236.17 235.74C259.09 236.22 282.02 236.27 304.94 235.81C316.21 235.58 324.31 226.09 324.31 214.87C324.31 203.85 315.88 194.28 304.73 194.08C281.81 193.69 258.87 193.71 235.95 194.09C227.15 194.24 220.96 199.61 217.89 207.69C214.79 215.85 216.62 223.4 222.3 231.05V231.06ZM296.01 259.31C293.75 258.47 289.39 255.55 284.94 255.4C268.58 254.82 252.17 254.77 235.8 255.29C224.83 255.64 216.75 264.85 216.56 275.68C216.37 286.52 224.08 296.29 234.99 296.77C251.76 297.5 268.59 297.4 285.37 296.81C294.08 296.5 300.13 291.04 302.88 282.68C305.54 274.61 303.65 267.38 296 259.32L296.01 259.31ZM216.8 156C219.1 168.02 226.74 174.85 237.9 174.94C259.56 175.12 281.23 175.13 302.89 174.94C315.25 174.83 324.36 165.66 324.33 153.96C324.3 142.06 315.45 133.2 303.01 132.89C295.65 132.7 288.28 133.06 280.93 132.77C277.22 132.62 275.61 133.85 274.09 137.32C264.93 158.17 241.61 166.91 220.8 157.64C219.68 157.14 218.53 156.7 216.8 155.99V156ZM278.85 113.72C287.25 113.74 296.27 114.13 305.24 113.67C315.07 113.16 323.37 104.59 324.26 94.9402C325.21 84.6602 318.87 74.3002 308.8 72.7802C298.63 71.2402 288.15 71.8002 278.85 71.4802C278.85 86.2702 278.85 99.8602 278.85 113.73V113.72Z" fill="#E64425"/>
</svg>
