<svg width="46" height="38" viewBox="0 0 46 38" fill="none" xmlns="http://www.w3.org/2000/svg">
<path d="M22.9998 15.8333C26.7048 15.8333 29.7082 13.3522 29.7082 10.2917C29.7082 7.23109 26.7048 4.75 22.9998 4.75C19.2949 4.75 16.2915 7.23109 16.2915 10.2917C16.2915 13.3522 19.2949 15.8333 22.9998 15.8333Z" fill="#FF5810" fill-opacity="0.94" stroke="#CACACA" stroke-width="3" stroke-linecap="round" stroke-linejoin="round"/>
<path d="M11.5 5.74316C9.76206 6.74458 8.625 8.40833 8.625 10.2915C8.625 12.3074 9.92795 14.0718 11.876 15.0415" stroke="#CACACA" stroke-width="3" stroke-linecap="round" stroke-linejoin="round"/>
<path d="M34.5 5.74316C36.2379 6.74458 37.375 8.40833 37.375 10.2915C37.375 12.1747 36.2379 13.8385 34.5 14.8399" stroke="#CACACA" stroke-width="3" stroke-linecap="round" stroke-linejoin="round"/>
<path d="M11.5 31.6667V33.2501H34.5V31.6667C34.5 28.7158 34.5 27.2403 33.9164 26.0764C33.1383 24.5246 31.6458 23.2916 29.7673 22.6489C28.3583 22.1667 26.5722 22.1667 23 22.1667C19.4278 22.1667 17.6417 22.1667 16.2327 22.6489C14.3542 23.2916 12.8617 24.5246 12.0836 26.0764C11.5 27.2403 11.5 28.7158 11.5 31.6667Z" fill="#FF5810" fill-opacity="0.94" stroke="#CACACA" stroke-width="3" stroke-linecap="round" stroke-linejoin="round"/>
<path d="M42.1666 33.25V32.3C42.1666 28.753 42.1666 26.9795 41.331 25.6248C40.5959 24.4331 39.423 23.4641 37.9805 22.8569" stroke="#CACACA" stroke-width="3" stroke-linecap="round" stroke-linejoin="round"/>
<path d="M3.8335 33.25V32.3C3.8335 28.753 3.8335 26.9795 4.66911 25.6248C5.40414 24.4331 6.57699 23.4641 8.01956 22.8569" stroke="#CACACA" stroke-width="3" stroke-linecap="round" stroke-linejoin="round"/>
</svg>
