<svg width="43" height="38" viewBox="0 0 43 38" fill="none" xmlns="http://www.w3.org/2000/svg">
<path fill-rule="evenodd" clip-rule="evenodd" d="M6.13947 1.16825C6.29442 0.484991 6.90172 0 7.60233 0H19.3184C19.8269 0 20.3007 0.2576 20.5772 0.684332L24.4826 6.71158C24.7006 7.0481 24.7749 7.45791 24.6887 7.84953C24.6025 8.24116 24.3632 8.58198 24.024 8.79592L15.6569 14.0741C15.0338 14.4671 14.2175 14.3495 13.7307 13.7966L11.3581 11.1015C10.8107 10.4797 10.871 9.53189 11.4928 8.98449C12.1146 8.43708 13.0625 8.49739 13.6099 9.11919L15.1376 10.8546L21.1392 7.06867L18.5029 3H8.80024L3.12301 28.034L1.6614 27.7025L3.12301 28.034C2.42074 31.1307 5.10512 34.4414 9.31918 34.4414H38.3962C38.5414 34.4414 38.6662 34.4003 38.7496 34.3491C38.8122 34.3106 38.8318 34.2801 38.8351 34.2745L38.8357 34.273C39.1845 33.3357 39.3472 32.3279 39.2905 31.2716C39.0657 27.3418 35.4616 23.7832 30.6312 23.3311L30.6311 23.3311C25.5384 22.8543 21.3115 25.7441 20.1348 29.5014C19.8872 30.292 19.0456 30.7322 18.2551 30.4846C17.4645 30.237 17.0243 29.3954 17.2719 28.6048C18.9266 23.3213 24.5998 19.7533 30.9108 20.3442L30.7709 21.8377L30.9108 20.3442C36.9364 20.9081 41.9627 25.4247 42.2858 31.1033L42.286 31.1076C42.3656 32.5811 42.138 33.9999 41.6481 35.3172C41.1294 36.7212 39.7066 37.4414 38.3962 37.4414H9.31918C3.67542 37.4414 -1.0337 32.7986 0.197299 27.3705L6.13947 1.16825Z" fill="#CACACA"/>
<path fill-rule="evenodd" clip-rule="evenodd" d="M14.4265 11.3712C15.2186 11.1285 16.0575 11.5738 16.3003 12.3658L20.7525 26.8915C20.9952 27.6835 20.55 28.5224 19.7579 28.7652C18.9658 29.008 18.127 28.5627 17.8842 27.7706L13.432 13.245C13.1892 12.4529 13.6345 11.614 14.4265 11.3712Z" fill="#CACACA"/>
</svg>
