<svg width="64" height="64" viewBox="0 0 64 64" fill="none" xmlns="http://www.w3.org/2000/svg">
<circle cx="32" cy="32" r="32" fill="white"/>
<path fill-rule="evenodd" clip-rule="evenodd" d="M19.9346 18.0199C20.0592 17.4707 20.5473 17.0809 21.1104 17.0809H30.5272C30.9359 17.0809 31.3168 17.2879 31.539 17.6309L34.6779 22.4753C34.8532 22.7458 34.9129 23.0752 34.8436 23.39C34.7744 23.7047 34.582 23.9787 34.3094 24.1506L27.5843 28.3929C27.0835 28.7089 26.4274 28.6143 26.0361 28.1699L24.1291 26.0038C23.6891 25.504 23.7376 24.7422 24.2374 24.3022C24.7372 23.8622 25.499 23.9107 25.939 24.4104L27.1669 25.8053L31.9907 22.7623L29.8718 19.4921H22.0732L17.5101 39.6133L16.3354 39.3469L17.5101 39.6133C16.9457 42.1022 19.1033 44.7633 22.4903 44.7633H45.861C45.9777 44.7633 46.0781 44.7302 46.1451 44.689C46.1954 44.6581 46.2112 44.6336 46.2138 44.6291L46.2143 44.6279C46.4947 43.8746 46.6254 43.0645 46.5798 42.2155C46.3991 39.0569 43.5023 36.1967 39.6199 35.8333L39.6198 35.8333C35.5266 35.4501 32.1292 37.7727 31.1834 40.7927C30.9844 41.4281 30.308 41.7819 29.6726 41.5829C29.0372 41.3839 28.6834 40.7075 28.8824 40.0721C30.2123 35.8254 34.7722 32.9577 39.8446 33.4326L39.7322 34.6329L39.8446 33.4326C44.6877 33.8858 48.7276 37.5161 48.9873 42.0802L48.9875 42.0837C49.0514 43.268 48.8686 44.4084 48.4747 45.4672C48.0579 46.5956 46.9143 47.1745 45.861 47.1745H22.4903C17.9541 47.1745 14.1692 43.4429 15.1586 39.08L19.9346 18.0199Z" fill="#E64425"/>
<path fill-rule="evenodd" clip-rule="evenodd" d="M26.5955 26.2205C27.2321 26.0254 27.9064 26.3833 28.1015 27.0199L31.68 38.695C31.8751 39.3316 31.5172 40.0059 30.8806 40.201C30.244 40.3961 29.5697 40.0382 29.3746 39.4016L25.7961 27.7266C25.601 27.0899 25.9589 26.4157 26.5955 26.2205Z" fill="#E64425"/>
</svg>
