<svg width="298" height="363" viewBox="0 0 298 363" fill="none" xmlns="http://www.w3.org/2000/svg">
<path d="M267.41 103.25C254.34 67.78 235.83 27.3 199.82 9.99C160.1 -9.11 117.11 5.66999 76.6699 13.58C55.8499 17.65 34.6599 19.22 13.5499 18.33C26.9899 29.49 32.5899 48.9 24.0199 66.31C21.6499 71.12 17.9499 75.28 14.8499 79.76C32.7099 102.28 32.7599 116.65 14.7699 140.95C25.1399 151.59 30.3199 164.26 27.1799 179.25C24.1199 193.89 14.9199 203.72 0.909912 209.3C1.59991 210.73 2.00992 211.65 2.47992 212.55C10.0499 226.91 8.8399 242.17 1.5799 253.67C42.5399 245.38 87.2499 259.07 115.79 294.76C116.03 295.06 116.27 295.36 116.5 295.66C157.23 347.24 209.24 373.29 252.17 357.47C314.6 334.46 305.66 207.06 267.41 103.27V103.25ZM134.78 53.35C150.91 53.35 163.99 66.43 163.99 82.56C163.99 98.69 150.91 111.77 134.78 111.77C118.65 111.77 105.57 98.69 105.57 82.56C105.57 66.43 118.65 53.35 134.78 53.35ZM76.3599 170.2C60.2299 170.2 47.1499 157.12 47.1499 140.99C47.1499 124.86 60.2299 111.78 76.3599 111.78C92.4899 111.78 105.57 124.86 105.57 140.99C105.57 157.12 92.4899 170.2 76.3599 170.2ZM134.78 228.62C118.65 228.62 105.57 215.54 105.57 199.41C105.57 183.28 118.65 170.2 134.78 170.2C150.91 170.2 163.99 183.28 163.99 199.41C163.99 215.54 150.91 228.62 134.78 228.62ZM222.41 140.99C222.41 157.12 209.33 170.2 193.2 170.2C177.07 170.2 163.99 157.12 163.99 140.99C163.99 124.86 177.07 111.78 193.2 111.78C209.33 111.78 222.41 124.86 222.41 140.99Z" fill="#E64425"/>
</svg>
