<svg width="40" height="40" viewBox="0 0 40 30" fill="none" xmlns="http://www.w3.org/2000/svg">
<path d="M4.00644 30C3.16458 30 2.45199 29.7083 1.86865 29.125C1.28532 28.5417 0.993652 27.8291 0.993652 26.9872V3.84621C0.993652 3.00432 1.28532 2.29171 1.86865 1.70837C2.45199 1.12504 3.16458 0.833374 4.00644 0.833374H15.1923V3.33333H4.00644C3.87822 3.33333 3.76069 3.38675 3.65386 3.49358C3.547 3.60044 3.49357 3.71798 3.49357 3.84621V26.9872C3.49357 27.1154 3.547 27.233 3.65386 27.3398C3.76069 27.4466 3.87822 27.5 4.00644 27.5H15.1923V30H4.00644ZM21.891 22.532L20.1603 20.7243L24.218 16.6667H10.1923V14.1667H24.218L20.1603 10.109L21.891 8.30142L29.0063 15.4167L21.891 22.532Z" fill="white"/>
</svg>
