<svg width="34" height="34" viewBox="0 0 34 34" fill="none" xmlns="http://www.w3.org/2000/svg">
<mask id="mask0_105_418" style="mask-type:alpha" maskUnits="userSpaceOnUse" x="0" y="0" width="34" height="34">
<rect width="34" height="34" fill="#D9D9D9"/>
</mask>
<g mask="url(#mask0_105_418)">
<path d="M28.3333 5.66675V14.1667H25.5V10.5188L19.8687 16.1147C20.3173 16.7758 20.6597 17.4782 20.8958 18.222C21.1319 18.9657 21.25 19.739 21.25 20.5417C21.25 22.714 20.4944 24.5556 18.9833 26.0667C17.4722 27.5779 15.6305 28.3334 13.4583 28.3334C11.2861 28.3334 9.4444 27.5779 7.93329 26.0667C6.42218 24.5556 5.66663 22.714 5.66663 20.5417C5.66663 18.3695 6.42218 16.5279 7.93329 15.0167C9.4444 13.5056 11.2861 12.7501 13.4583 12.7501C14.2375 12.7501 15.0048 12.8622 15.7604 13.0865C16.5159 13.3108 17.2125 13.6591 17.85 14.1313L23.4812 8.50008H19.8333V5.66675H28.3333ZM13.4583 15.5834C12.0888 15.5834 10.9201 16.0674 9.95204 17.0355C8.98399 18.0036 8.49996 19.1723 8.49996 20.5417C8.49996 21.9112 8.98399 23.0799 9.95204 24.048C10.9201 25.0161 12.0888 25.5001 13.4583 25.5001C14.8277 25.5001 15.9965 25.0161 16.9645 24.048C17.9326 23.0799 18.4166 21.9112 18.4166 20.5417C18.4166 19.1723 17.9326 18.0036 16.9645 17.0355C15.9965 16.0674 14.8277 15.5834 13.4583 15.5834Z" fill="white"/>
</g>
</svg>
