<svg width="24" height="24" viewBox="0 0 24 24" fill="none" xmlns="http://www.w3.org/2000/svg">
<path d="M23.3334 0.666748V9.16675H20.5V5.51883L14.8688 11.1147C15.3174 11.7758 15.6597 12.4782 15.8959 13.222C16.132 13.9657 16.25 14.739 16.25 15.5417C16.25 17.714 15.4945 19.5556 13.9834 21.0667C12.4722 22.5779 10.6306 23.3334 8.45835 23.3334C6.28613 23.3334 4.44446 22.5779 2.93335 21.0667C1.42224 19.5556 0.666687 17.714 0.666687 15.5417C0.666687 13.3695 1.42224 11.5279 2.93335 10.0167C4.44446 8.50564 6.28613 7.75008 8.45835 7.75008C9.23752 7.75008 10.0049 7.86223 10.7604 8.08654C11.516 8.31085 12.2125 8.65911 12.85 9.13133L18.4813 3.50008H14.8334V0.666748H23.3334ZM8.45835 10.5834C7.08891 10.5834 5.92016 11.0674 4.9521 12.0355C3.98405 13.0036 3.50002 14.1723 3.50002 15.5417C3.50002 16.9112 3.98405 18.0799 4.9521 19.048C5.92016 20.0161 7.08891 20.5001 8.45835 20.5001C9.8278 20.5001 10.9965 20.0161 11.9646 19.048C12.9327 18.0799 13.4167 16.9112 13.4167 15.5417C13.4167 14.1723 12.9327 13.0036 11.9646 12.0355C10.9965 11.0674 9.8278 10.5834 8.45835 10.5834Z" fill="#00BAFF"/>
</svg>
