<svg width="10" height="20" viewBox="0 0 10 20" fill="none" xmlns="http://www.w3.org/2000/svg">
<path d="M0.0578613 0.288574H9.67321V7.75395C9.67321 8.12445 9.58347 8.46131 9.40399 8.76453C9.2245 9.06773 8.97835 9.3142 8.66551 9.50395L5.21169 11.5655L5.93091 13.9039H9.26934L6.53476 15.8347L7.60014 19.1924L4.86554 17.1116L2.13094 19.1924L3.19631 15.8347L0.461736 13.9039H3.80016L4.51939 11.5655L1.04631 9.52317C0.733495 9.33984 0.490553 9.09337 0.317487 8.78375C0.144403 8.47413 0.0578613 8.13087 0.0578613 7.75395V0.288574ZM1.55781 1.78855V7.75395C1.55781 7.8501 1.58185 7.93824 1.62994 8.01837C1.67802 8.09851 1.74373 8.16422 1.82706 8.2155L4.11556 9.56938V1.78855H1.55781ZM8.17326 1.78855H5.61551V9.56938L7.90401 8.2155C7.98735 8.16422 8.05305 8.09851 8.10114 8.01837C8.14922 7.93824 8.17326 7.8501 8.17326 7.75395V1.78855Z" fill="white"/>
</svg>
