<svg width="40" height="40" viewBox="0 0 40 40" fill="none" xmlns="http://www.w3.org/2000/svg">
<mask id="mask0_323_884" style="mask-type:alpha" maskUnits="userSpaceOnUse" x="0" y="0" width="40" height="40">
<rect width="40" height="40" fill="#D9D9D9"/>
</mask>
<g mask="url(#mask0_323_884)">
<path d="M7.08374 31.4421V28.9422H10.4171V16.8588C10.4171 14.596 11.1169 12.5955 12.5164 10.8572C13.916 9.11899 15.7162 8.00414 17.9171 7.51269V6.34603C17.9171 5.75842 18.1174 5.26429 18.518 4.86365C18.9186 4.46301 19.4128 4.2627 20.0004 4.2627C20.588 4.2627 21.0821 4.46301 21.4827 4.86365C21.8833 5.26429 22.0837 5.75842 22.0837 6.34603V7.51269C24.2845 8.00414 26.0847 9.11899 27.4843 10.8572C28.8839 12.5955 29.5837 14.596 29.5837 16.8588V28.9422H32.917V31.4421H7.08374ZM20.0004 36.3459C19.1799 36.3459 18.4726 36.0543 17.8786 35.4709C17.2846 34.8876 16.9876 34.175 16.9876 33.3331H23.0132C23.0132 34.175 22.7215 34.8876 22.1382 35.4709C21.5548 36.0543 20.8422 36.3459 20.0004 36.3459ZM12.917 28.9422H27.0837V16.8588C27.0837 14.8973 26.3936 13.2263 25.0132 11.8459C23.6329 10.4656 21.9619 9.77544 20.0004 9.77544C18.0388 9.77544 16.3679 10.4656 14.9875 11.8459C13.6072 13.2263 12.917 14.8973 12.917 16.8588V28.9422Z" fill="white"/>
</g>
<circle cx="27" cy="9" r="5" fill="#E64425"/>
</svg>
