<svg width="40" height="40" viewBox="0 0 40 40" fill="none" xmlns="http://www.w3.org/2000/svg">
<mask id="mask0_317_666" style="mask-type:alpha" maskUnits="userSpaceOnUse" x="0" y="0" width="40" height="40">
<rect width="40" height="40" fill="#D9D9D9"/>
</mask>
<g mask="url(#mask0_317_666)">
<path d="M7.08374 31.4424V28.9424H10.4171V16.8591C10.4171 14.5962 11.1169 12.5957 12.5164 10.8575C13.916 9.11923 15.7162 8.00438 17.9171 7.51294V6.34627C17.9171 5.75866 18.1174 5.26454 18.518 4.8639C18.9186 4.46326 19.4128 4.26294 20.0004 4.26294C20.588 4.26294 21.0821 4.46326 21.4827 4.8639C21.8833 5.26454 22.0837 5.75866 22.0837 6.34627V7.51294C24.2845 8.00438 26.0847 9.11923 27.4843 10.8575C28.8839 12.5957 29.5837 14.5962 29.5837 16.8591V28.9424H32.917V31.4424H7.08374ZM20.0004 36.3462C19.1799 36.3462 18.4726 36.0545 17.8786 35.4712C17.2846 34.8879 16.9876 34.1753 16.9876 33.3334H23.0132C23.0132 34.1753 22.7215 34.8879 22.1382 35.4712C21.5548 36.0545 20.8422 36.3462 20.0004 36.3462ZM12.917 28.9424H27.0837V16.8591C27.0837 14.8975 26.3936 13.2266 25.0132 11.8462C23.6329 10.4659 21.9619 9.77569 20.0004 9.77569C18.0388 9.77569 16.3679 10.4659 14.9875 11.8462C13.6072 13.2266 12.917 14.8975 12.917 16.8591V28.9424Z" fill="white"/>
</g>
</svg>
