<svg width="18" height="18" viewBox="0 0 18 18" fill="none" xmlns="http://www.w3.org/2000/svg">
<path d="M2.3077 16H15.6923C15.782 16 15.8557 15.9711 15.9134 15.9134C15.9711 15.8557 16 15.782 16 15.6923V6.7192L11.2808 1.99997H2.3077C2.21795 1.99997 2.14423 2.02883 2.08653 2.08653C2.02883 2.14423 1.99997 2.21795 1.99997 2.3077V15.6923C1.99997 15.782 2.02883 15.8557 2.08653 15.9134C2.14423 15.9711 2.21795 16 2.3077 16ZM2.3077 17.5C1.80898 17.5 1.38302 17.3233 1.02982 16.9701C0.676608 16.6169 0.5 16.191 0.5 15.6923V2.3077C0.5 1.80898 0.676608 1.38302 1.02982 1.02982C1.38302 0.676608 1.80898 0.5 2.3077 0.5H11.8942L17.5 6.10575V15.6923C17.5 16.191 17.3233 16.6169 16.9701 16.9701C16.6169 17.3233 16.191 17.5 15.6923 17.5H2.3077ZM4.25 13.5H13.75V12H4.25V13.5ZM4.25 9.74995H13.75V8.25H4.25V9.74995ZM4.25 5.99998H10.6153V4.5H4.25V5.99998Z" fill="white"/>
</svg>
