<svg width="18" height="22" viewBox="0 0 18 22" fill="none" xmlns="http://www.w3.org/2000/svg">
<path d="M0.875 21.3124V2.63462C0.875 2.00321 1.09375 1.46875 1.53125 1.03125C1.96875 0.59375 2.50321 0.375 3.13462 0.375H14.8653C15.4967 0.375 16.0312 0.59375 16.4687 1.03125C16.9062 1.46875 17.1249 2.00321 17.1249 2.63462V21.3124L8.99997 17.8268L0.875 21.3124ZM2.74997 18.4375L8.99997 15.75L15.25 18.4375V2.63462C15.25 2.53846 15.2099 2.4503 15.1298 2.37016C15.0496 2.29003 14.9615 2.24997 14.8653 2.24997H3.13462C3.03846 2.24997 2.9503 2.29003 2.87016 2.37016C2.79003 2.4503 2.74997 2.53846 2.74997 2.63462V18.4375Z" fill="white"/>
</svg>
