<svg width="30" height="30" viewBox="0 0 30 30" fill="none" xmlns="http://www.w3.org/2000/svg">
<mask id="mask0_444_356" style="mask-type:alpha" maskUnits="userSpaceOnUse" x="0" y="0" width="30" height="30">
<rect width="30" height="30" fill="#D9D9D9"/>
</mask>
<g mask="url(#mask0_444_356)">
<path opacity="0.5" d="M6.875 25.3124V6.63462C6.875 6.00321 7.09375 5.46875 7.53125 5.03125C7.96875 4.59375 8.50321 4.375 9.13462 4.375H20.8653C21.4967 4.375 22.0312 4.59375 22.4687 5.03125C22.9062 5.46875 23.1249 6.00321 23.1249 6.63462V25.3124L15 21.8268L6.875 25.3124ZM8.74997 22.4375L15 19.75L21.25 22.4375V6.63462C21.25 6.53846 21.2099 6.4503 21.1298 6.37016C21.0496 6.29003 20.9615 6.24997 20.8653 6.24997H9.13462C9.03846 6.24997 8.9503 6.29003 8.87016 6.37016C8.79003 6.4503 8.74997 6.53846 8.74997 6.63462V22.4375Z" fill="white"/>
</g>
</svg>
