<svg width="30" height="30" viewBox="0 0 30 30" fill="none" xmlns="http://www.w3.org/2000/svg">
<path d="M27.5705 29.2948L17.1025 18.8269C16.2692 19.5149 15.3108 20.0534 14.2275 20.4423C13.1442 20.8311 12.0235 21.0256 10.8653 21.0256C8.01674 21.0256 5.60587 20.0393 3.63276 18.0667C1.65965 16.0941 0.673096 13.6838 0.673096 10.836C0.673096 7.98807 1.6594 5.57694 3.63201 3.60258C5.60462 1.62825 8.01487 0.641083 10.8628 0.641083C13.7106 0.641083 16.1217 1.62764 18.0961 3.60075C20.0705 5.57386 21.0576 7.98472 21.0576 10.8333C21.0576 12.0235 20.8578 13.1603 20.4583 14.2436C20.0587 15.3269 19.5256 16.2692 18.8589 17.0705L29.3268 27.5385L27.5705 29.2948ZM10.8653 18.5257C13.0128 18.5257 14.8317 17.7805 16.3221 16.2901C17.8125 14.7997 18.5577 12.9808 18.5577 10.8333C18.5577 8.68589 17.8125 6.86697 16.3221 5.37658C14.8317 3.88619 13.0128 3.141 10.8653 3.141C8.7179 3.141 6.89899 3.88619 5.4086 5.37658C3.91824 6.86697 3.17305 8.68589 3.17305 10.8333C3.17305 12.9808 3.91824 14.7997 5.4086 16.2901C6.89899 17.7805 8.7179 18.5257 10.8653 18.5257Z" fill="white"/>
</svg>
