<svg width="20" height="20" viewBox="0 0 20 20" fill="none" xmlns="http://www.w3.org/2000/svg">
<path d="M9.86713 19.5C8.55319 19.5 7.31816 19.2506 6.16203 18.752C5.00588 18.2533 4.0002 17.5766 3.14498 16.7217C2.28975 15.8669 1.61269 14.8616 1.1138 13.706C0.61492 12.5504 0.365479 11.3156 0.365479 10.0017C0.365479 8.68774 0.614812 7.45271 1.11348 6.29658C1.61215 5.14042 2.2889 4.13474 3.14373 3.27952C3.99858 2.42429 5.00382 1.74723 6.15945 1.24835C7.31507 0.749466 8.54985 0.500025 9.86378 0.500025C11.1777 0.500025 12.4127 0.749358 13.5689 1.24802C14.725 1.74669 15.7307 2.42344 16.5859 3.27828C17.4412 4.13313 18.1182 5.13837 18.6171 6.294C19.116 7.44962 19.3654 8.68439 19.3654 9.99833C19.3654 11.3123 19.1161 12.5473 18.6174 13.7034C18.1188 14.8596 17.442 15.8653 16.5872 16.7205C15.7323 17.5757 14.7271 18.2528 13.5715 18.7516C12.4158 19.2505 11.1811 19.5 9.86713 19.5ZM9.86545 18L9.16545 17.3C9.06545 17.2 8.99045 17.0917 8.94045 16.975C8.89045 16.8583 8.86545 16.7333 8.86545 16.6V11C8.31545 11 7.84462 10.8042 7.45295 10.4125C7.06129 10.0208 6.86545 9.55 6.86545 9V8L3.74045 4.875C3.15712 5.575 2.69879 6.35833 2.36545 7.225C2.03212 8.09167 1.86545 9.01667 1.86545 10C1.86545 12.2333 2.64045 14.125 4.19045 15.675C5.74045 17.225 7.63212 18 9.86545 18ZM10.8655 17.95C12.8488 17.7 14.5113 16.825 15.853 15.325C17.1946 13.825 17.8655 12.05 17.8655 10C17.8655 7.78333 17.0863 5.89583 15.528 4.3375C13.9696 2.77917 12.0821 2 9.86545 2C9.13212 2 8.42795 2.09583 7.75295 2.2875C7.07795 2.47917 6.44879 2.74167 5.86545 3.075V5H9.41545C9.71545 5 10.003 5.06667 10.278 5.2C10.553 5.33333 10.7821 5.51667 10.9655 5.75L12.3655 7.5H13.8655C14.1488 7.5 14.3863 7.59583 14.578 7.7875C14.7696 7.97917 14.8655 8.21667 14.8655 8.5V9.55C14.8655 9.7 14.8446 9.84167 14.803 9.975C14.7613 10.1083 14.6988 10.2417 14.6155 10.375L10.8655 16V17.95Z" fill="white"/>
</svg>
