<svg width="20" height="14" viewBox="0 0 20 14" fill="none" xmlns="http://www.w3.org/2000/svg">
<path d="M2.39634 13.5C1.71943 13.5 1.19411 13.2602 0.820393 12.7807C0.446693 12.3012 0.305351 11.7359 0.396368 11.0846L1.46559 3.5269C1.59638 2.6487 1.98452 1.92467 2.63002 1.3548C3.27552 0.784933 4.03737 0.5 4.91557 0.5H14.8156C15.6938 0.5 16.4556 0.784933 17.1011 1.3548C17.7466 1.92467 18.1348 2.6487 18.2655 3.5269L19.3348 11.0846C19.4258 11.7359 19.2844 12.3012 18.9107 12.7807C18.537 13.2602 18.0117 13.5 17.3348 13.5C17.0489 13.5 16.7864 13.4519 16.5473 13.3557C16.3082 13.2596 16.0861 13.1089 15.881 12.9038L13.4771 10.5H6.25402L3.85017 12.9038C3.64503 13.1089 3.42292 13.2596 3.18382 13.3557C2.94472 13.4519 2.68223 13.5 2.39634 13.5ZM2.79634 11.85L5.64634 8.99998H14.0848L16.9348 11.85C16.9681 11.8833 17.0951 11.9333 17.3156 12C17.4989 12 17.6447 11.9458 17.7531 11.8375C17.8614 11.7291 17.8989 11.5833 17.8656 11.4L16.7656 3.69997C16.6989 3.21664 16.4806 2.81247 16.1108 2.48747C15.7409 2.16247 15.3092 1.99997 14.8156 1.99997H4.91557C4.42198 1.99997 3.99025 2.16247 3.62037 2.48747C3.2505 2.81247 3.03223 3.21664 2.96557 3.69997L1.86557 11.4C1.83223 11.5833 1.86973 11.7291 1.97807 11.8375C2.0864 11.9458 2.23223 12 2.41557 12C2.46172 12 2.58864 11.95 2.79634 11.85ZM14.8656 7.90382C15.1169 7.90382 15.3303 7.816 15.5059 7.64035C15.6816 7.46472 15.7694 7.25126 15.7694 6.99997C15.7694 6.74869 15.6816 6.53523 15.5059 6.3596C15.3303 6.18395 15.1169 6.09613 14.8656 6.09613C14.6143 6.09613 14.4008 6.18395 14.2252 6.3596C14.0495 6.53523 13.9617 6.74869 13.9617 6.99997C13.9617 7.25126 14.0495 7.46472 14.2252 7.64035C14.4008 7.816 14.6143 7.90382 14.8656 7.90382ZM12.8656 4.90382C13.1169 4.90382 13.3303 4.816 13.5059 4.64035C13.6816 4.46472 13.7694 4.25126 13.7694 3.99997C13.7694 3.74869 13.6816 3.53523 13.5059 3.3596C13.3303 3.18395 13.1169 3.09613 12.8656 3.09613C12.6143 3.09613 12.4008 3.18395 12.2252 3.3596C12.0495 3.53523 11.9617 3.74869 11.9617 3.99997C11.9617 4.25126 12.0495 4.46472 12.2252 4.64035C12.4008 4.816 12.6143 4.90382 12.8656 4.90382ZM5.76942 7.84613H6.96172V6.09613H8.71172V4.90382H6.96172V3.15382H5.76942V4.90382H4.01942V6.09613H5.76942V7.84613Z" fill="white"/>
</svg>
