<svg width="34" height="34" viewBox="0 0 34 34" fill="none" xmlns="http://www.w3.org/2000/svg">
<mask id="mask0_105_476" style="mask-type:alpha" maskUnits="userSpaceOnUse" x="0" y="0" width="34" height="34">
<rect width="34" height="34" fill="#D9D9D9"/>
</mask>
<g mask="url(#mask0_105_476)">
<path d="M17 21.2501C18.3694 21.2501 19.5382 20.7661 20.5063 19.798C21.4743 18.8299 21.9583 17.6612 21.9583 16.2917C21.9583 14.9223 21.4743 13.7536 20.5063 12.7855C19.5382 11.8174 18.3694 11.3334 17 11.3334C15.6306 11.3334 14.4618 11.8174 13.4938 12.7855C12.5257 13.7536 12.0417 14.9223 12.0417 16.2917C12.0417 17.6612 12.5257 18.8299 13.4938 19.798C14.4618 20.7661 15.6306 21.2501 17 21.2501ZM15.5833 32.5834V29.7501H12.75V26.9167H15.5833V23.9417C13.7417 23.6112 12.2188 22.7258 11.0146 21.2855C9.81042 19.8452 9.20833 18.1806 9.20833 16.2917C9.20833 15.5126 9.32049 14.7452 9.54479 13.9897C9.7691 13.2341 10.1056 12.5376 10.5542 11.9001L9.63333 10.9792L7.65 12.9626L5.66667 10.9792L7.65 8.9605L4.95833 6.26883V9.91675H2.125V1.41675H10.625V4.25008H6.97708L9.66875 6.94175L11.6875 4.95841L13.6708 6.94175L11.6875 8.9605L12.6083 9.88133C13.2458 9.40911 13.9424 9.06085 14.6979 8.83654C15.4535 8.61223 16.2208 8.50008 17 8.50008C17.7792 8.50008 18.5465 8.61223 19.3021 8.83654C20.0576 9.06085 20.7542 9.40911 21.3917 9.88133L27.0229 4.25008H23.375V1.41675H31.875V9.91675H29.0417V6.26883L23.4104 11.8647C23.859 12.5258 24.2014 13.2282 24.4375 13.972C24.6736 14.7157 24.7917 15.489 24.7917 16.2917C24.7917 18.1806 24.1896 19.8452 22.9854 21.2855C21.7812 22.7258 20.2583 23.6112 18.4167 23.9417V26.9167H21.25V29.7501H18.4167V32.5834H15.5833Z" fill="white"/>
</g>
</svg>
