<svg width="30" height="32" viewBox="0 0 30 32" fill="none" xmlns="http://www.w3.org/2000/svg">
<path d="M15 20.2501C16.3694 20.2501 17.5382 19.7661 18.5063 18.798C19.4743 17.8299 19.9583 16.6612 19.9583 15.2917C19.9583 13.9223 19.4743 12.7536 18.5063 11.7855C17.5382 10.8174 16.3694 10.3334 15 10.3334C13.6306 10.3334 12.4618 10.8174 11.4938 11.7855C10.5257 12.7536 10.0417 13.9223 10.0417 15.2917C10.0417 16.6612 10.5257 17.8299 11.4938 18.798C12.4618 19.7661 13.6306 20.2501 15 20.2501ZM13.5833 31.5834V28.7501H10.75V25.9167H13.5833V22.9417C11.7417 22.6112 10.2188 21.7258 9.01458 20.2855C7.81042 18.8452 7.20833 17.1806 7.20833 15.2917C7.20833 14.5126 7.32049 13.7452 7.54479 12.9897C7.7691 12.2341 8.10556 11.5376 8.55417 10.9001L7.63333 9.97925L5.65 11.9626L3.66667 9.97925L5.65 7.9605L2.95833 5.26883V8.91675H0.125V0.416748H8.625V3.25008H4.97708L7.66875 5.94175L9.6875 3.95841L11.6708 5.94175L9.6875 7.9605L10.6083 8.88133C11.2458 8.40911 11.9424 8.06085 12.6979 7.83654C13.4535 7.61223 14.2208 7.50008 15 7.50008C15.7792 7.50008 16.5465 7.61223 17.3021 7.83654C18.0576 8.06085 18.7542 8.40911 19.3917 8.88133L25.0229 3.25008H21.375V0.416748H29.875V8.91675H27.0417V5.26883L21.4104 10.8647C21.859 11.5258 22.2014 12.2282 22.4375 12.972C22.6736 13.7157 22.7917 14.489 22.7917 15.2917C22.7917 17.1806 22.1896 18.8452 20.9854 20.2855C19.7812 21.7258 18.2583 22.6112 16.4167 22.9417V25.9167H19.25V28.7501H16.4167V31.5834H13.5833Z" fill="#FFB300"/>
</svg>
