<svg width="38" height="38" viewBox="0 0 38 38" fill="none" xmlns="http://www.w3.org/2000/svg">
<mask id="mask0_317_414" style="mask-type:alpha" maskUnits="userSpaceOnUse" x="0" y="0" width="38" height="38">
<rect width="38" height="38" fill="#D9D9D9"/>
</mask>
<g mask="url(#mask0_317_414)">
<path d="M9.98719 30.875C9.1874 30.875 8.51042 30.5979 7.95625 30.0438C7.40208 29.4896 7.125 28.8126 7.125 28.0128V23.7501H9.49996V28.0128C9.49996 28.1347 9.55071 28.2463 9.6522 28.3478C9.75372 28.4493 9.86538 28.5001 9.98719 28.5001H28.0127C28.1345 28.5001 28.2462 28.4493 28.3477 28.3478C28.4492 28.2463 28.5 28.1347 28.5 28.0128V23.7501H30.8749V28.0128C30.8749 28.8126 30.5978 29.4896 30.0437 30.0438C29.4895 30.5979 28.8125 30.875 28.0127 30.875H9.98719ZM17.8125 24.7244V11.4244L13.909 15.3279L12.2404 13.6106L19 6.85107L25.7595 13.6106L24.0909 15.3279L20.1874 11.4244V24.7244H17.8125Z" fill="#E64425"/>
</g>
</svg>
