<svg width="25" height="25" viewBox="0 0 65 65" fill="none" xmlns="http://www.w3.org/2000/svg">
<g opacity="0.5">
<mask id="mask0_168_296" style="mask-type:alpha" maskUnits="userSpaceOnUse" x="0" y="0" width="65" height="65">
<rect width="64.8344" height="64.8344" fill="#D9D9D9"/>
</mask>
<g mask="url(#mask0_168_296)">
<path d="M17.0399 52.6779C15.6753 52.6779 14.5203 52.2052 13.5748 51.2597C12.6293 50.3142 12.1565 49.1591 12.1565 47.7945V40.5215H16.2086V47.7945C16.2086 48.0024 16.2952 48.1929 16.4684 48.3661C16.6416 48.5392 16.8321 48.6258 17.0399 48.6258H47.7945C48.0024 48.6258 48.1929 48.5392 48.3661 48.3661C48.5392 48.1929 48.6258 48.0024 48.6258 47.7945V40.5215H52.6779V47.7945C52.6779 49.1591 52.2052 50.3142 51.2597 51.2597C50.3142 52.2052 49.1591 52.6779 47.7945 52.6779H17.0399ZM30.3912 42.1838V19.4918L23.7312 26.1518L20.8843 23.2219L32.4172 11.689L43.9501 23.2219L41.1033 26.1518L34.4432 19.4918V42.1838H30.3912Z" fill="black"/>
</g>
</g>
</svg>
